<?xml version="1.0" encoding="UTF-8"?> <svg xmlns="http://www.w3.org/2000/svg" width="715" height="179" viewBox="0 0 715 179" fill="none"><path d="M194.122 132.563C193.715 133.738 193.082 134.823 192.223 135.817C191.364 136.811 190.099 137.309 188.426 137.309H186.325V136.631C186.596 136.631 186.957 136.563 187.409 136.427C187.861 136.246 188.336 135.975 188.833 135.614C189.33 135.252 189.828 134.8 190.325 134.258C190.822 133.67 191.251 132.947 191.613 132.088L204.427 96.9671C204.653 96.2891 204.766 95.7693 204.766 95.4077C204.766 94.7297 204.563 94.2099 204.156 93.8483C203.795 93.4415 203.41 93.2381 203.004 93.2381V92.5601H208.563L223.751 134.054C223.977 134.687 224.406 135.275 225.039 135.817C225.672 136.314 226.372 136.585 227.141 136.631V137.309H217.445V136.631C217.807 136.631 218.168 136.495 218.53 136.224C218.937 135.907 219.14 135.501 219.14 135.003C219.14 134.868 219.095 134.664 219.005 134.393L206.258 99.2723L194.122 132.563ZM259.176 136.631H259.515C259.876 136.631 260.193 136.518 260.464 136.292C260.735 136.02 260.961 135.704 261.142 135.342C261.368 134.936 261.526 134.529 261.616 134.122C261.707 133.67 261.752 133.263 261.752 132.902V101.849L239.242 132.291V132.902C239.242 133.263 239.287 133.67 239.378 134.122C239.513 134.529 239.672 134.913 239.852 135.275C240.033 135.636 240.259 135.953 240.53 136.224C240.802 136.495 241.118 136.631 241.48 136.631H241.819V137.309H232.191V136.631H232.53C232.891 136.631 233.208 136.518 233.479 136.292C233.75 136.02 233.976 135.704 234.157 135.342C234.383 134.936 234.541 134.529 234.632 134.122C234.722 133.67 234.767 133.263 234.767 132.902V96.7637C234.767 96.4473 234.722 96.0857 234.632 95.6789C234.541 95.2721 234.383 94.8879 234.157 94.5263C233.976 94.1647 233.75 93.8709 233.479 93.6449C233.208 93.3737 232.891 93.2381 232.53 93.2381H232.191V92.5601H241.819V93.2381H241.276C240.96 93.2833 240.666 93.4415 240.395 93.7127C240.169 93.9839 239.965 94.3003 239.785 94.6619C239.604 94.9783 239.468 95.3399 239.378 95.7467C239.287 96.1083 239.242 96.4473 239.242 96.7637V128.088L261.752 97.6451V96.7637C261.752 96.4473 261.707 96.0857 261.616 95.6789C261.526 95.2721 261.368 94.8879 261.142 94.5263C260.961 94.1647 260.735 93.8709 260.464 93.6449C260.193 93.3737 259.876 93.2381 259.515 93.2381H259.176V92.5601H268.803V93.2381H268.464C268.103 93.2381 267.786 93.3737 267.515 93.6449C267.244 93.8709 267.018 94.1647 266.837 94.5263C266.656 94.8879 266.498 95.2721 266.362 95.6789C266.272 96.0857 266.227 96.4473 266.227 96.7637V132.902C266.227 133.263 266.272 133.647 266.362 134.054C266.498 134.461 266.656 134.868 266.837 135.275C267.018 135.636 267.244 135.953 267.515 136.224C267.786 136.495 268.103 136.631 268.464 136.631H268.803V137.309H259.176V136.631ZM302.281 136.631H302.62C302.936 136.631 303.23 136.518 303.501 136.292C303.773 136.02 303.999 135.704 304.179 135.342C304.405 134.936 304.564 134.529 304.654 134.122C304.744 133.67 304.79 133.263 304.79 132.902V114.46H283.093V132.902C283.093 133.263 283.139 133.67 283.229 134.122C283.319 134.529 283.455 134.913 283.636 135.275C283.817 135.636 284.02 135.953 284.246 136.224C284.517 136.495 284.834 136.631 285.195 136.631H285.534V137.309H276.042V136.631H276.381C276.697 136.631 276.991 136.518 277.262 136.292C277.534 136.02 277.76 135.704 277.94 135.342C278.166 134.936 278.325 134.529 278.415 134.122C278.505 133.67 278.551 133.263 278.551 132.902V96.7637C278.551 96.4473 278.505 96.0857 278.415 95.6789C278.325 95.2721 278.189 94.8879 278.008 94.5263C277.827 94.1647 277.601 93.8709 277.33 93.6449C277.059 93.3737 276.743 93.2381 276.381 93.2381H276.042V92.5601H285.534V93.2381H285.195C284.834 93.2381 284.517 93.3737 284.246 93.6449C283.975 93.8709 283.749 94.1647 283.568 94.5263C283.432 94.8879 283.319 95.2721 283.229 95.6789C283.139 96.0857 283.093 96.4473 283.093 96.7637V112.087H304.79V96.7637C304.79 96.4473 304.744 96.0857 304.654 95.6789C304.564 95.2721 304.428 94.8879 304.247 94.5263C304.066 94.1647 303.84 93.8709 303.569 93.6449C303.298 93.3737 302.982 93.2381 302.62 93.2381H302.281V92.5601H311.773V93.2381H311.434C311.072 93.2381 310.756 93.3737 310.485 93.6449C310.214 93.8709 309.988 94.1647 309.807 94.5263C309.671 94.8879 309.558 95.2721 309.468 95.6789C309.377 96.0857 309.332 96.4473 309.332 96.7637V132.902C309.332 133.263 309.377 133.67 309.468 134.122C309.603 134.529 309.762 134.913 309.942 135.275C310.123 135.636 310.327 135.953 310.553 136.224C310.824 136.495 311.118 136.631 311.434 136.631H311.773V137.309H302.281V136.631ZM343.305 136.631H343.644C344.729 136.631 345.271 136.133 345.271 135.139C345.271 134.777 345.204 134.393 345.068 133.986L338.966 117.511H327.101L321.202 133.715C321.067 134.077 320.999 134.416 320.999 134.732C320.999 135.32 321.157 135.794 321.473 136.156C321.79 136.472 322.129 136.631 322.49 136.631H322.829V137.309H315.303V136.631H315.642C316.23 136.631 316.795 136.292 317.337 135.614C317.925 134.89 318.4 134.054 318.761 133.105L334.288 91.7464L349.475 132.698C349.791 133.602 350.221 134.484 350.763 135.342C351.351 136.201 352.097 136.631 353.001 136.631H353.34V137.309H343.305V136.631ZM327.779 115.206H338.22L332.999 101.035L327.779 115.206Z" fill="black"></path><path d="M156.928 100.244C156.928 97.0888 156.613 93.776 155.982 90.3055C155.456 86.7298 154.72 83.7851 153.773 81.4714C148.094 86.9401 142.678 92.514 137.525 98.1931C132.477 103.872 126.956 109.236 120.961 114.284C125.378 117.649 130.374 120.173 135.947 121.856C141.521 123.539 146.832 124.695 151.88 125.326C153.353 121.33 154.562 117.281 155.509 113.179C156.455 108.973 156.928 104.661 156.928 100.244ZM157.875 113.968C164.501 98.5086 172.493 83.9428 181.853 70.271C191.213 56.494 201.94 43.7162 214.035 31.9374L213.719 31.6219C211.931 31.8322 208.987 33.252 204.885 35.8812C200.889 38.5104 196.209 42.0335 190.845 46.4505C185.482 50.8676 179.697 55.9682 173.492 61.7524C167.393 67.4315 161.346 73.4786 155.351 79.8939C156.718 83.0489 157.612 86.2565 158.033 89.5167C158.559 92.7769 158.821 95.9846 158.821 99.1396C158.821 101.558 158.716 103.977 158.506 106.396C158.296 108.815 157.98 111.234 157.559 113.653L157.875 113.968ZM103.924 83.0489C103.924 90.2003 105.396 96.1949 108.341 101.033C111.391 105.765 114.967 109.762 119.068 113.022C125.168 107.869 130.899 102.452 136.263 96.7733C141.732 90.9891 147.306 85.2049 152.985 79.4206C151.512 76.7914 149.882 74.32 148.094 72.0063C146.412 69.5874 144.466 67.4841 142.258 65.6962C140.154 63.9084 137.788 62.4886 135.159 61.4369C132.53 60.3853 129.585 59.8594 126.325 59.8594C123.59 59.8594 120.856 60.3327 118.122 61.2792C115.492 62.1205 113.126 63.4877 111.023 65.3807C108.919 67.2737 107.184 69.6926 105.817 72.6373C104.555 75.582 103.924 79.0525 103.924 83.0489ZM146.832 137L151.249 127.219C145.57 126.378 139.944 125.116 134.37 123.433C128.901 121.646 123.906 119.069 119.384 115.704C115.808 118.859 111.917 121.803 107.71 124.538C103.608 127.167 99.1914 129.481 94.4588 131.479C89.7263 133.477 84.6782 135.054 79.3146 136.211C73.9511 137.368 68.3772 137.947 62.593 137.947C57.1242 137.947 51.9184 137.21 46.9755 135.738C42.1378 134.16 37.8785 131.952 34.1977 129.112C30.5168 126.273 27.5721 122.908 25.3636 119.016C23.2602 115.125 22.2085 110.813 22.2085 106.081C22.2085 100.296 23.5231 95.1958 26.1523 90.7788C28.7815 86.2565 32.0943 82.4705 36.0907 79.4206C40.087 76.2656 44.3989 73.8993 49.0263 72.3218C53.7589 70.6391 58.1759 69.7978 62.2775 69.7978C67.1152 69.7978 71.3745 70.4814 75.0553 71.8485C78.7362 73.1106 81.8387 74.8458 84.3627 77.0544C86.8867 79.2629 88.7797 81.7869 90.0418 84.6264C91.3038 87.466 91.9348 90.4632 91.9348 93.6183C91.9348 97.7198 90.9357 101.401 88.9375 104.661C87.0445 107.921 84.573 110.708 81.5232 113.022C78.4733 115.23 75.0553 116.966 71.2693 118.228C67.4833 119.384 63.7498 119.963 60.0689 119.963C56.8087 119.963 54.758 119.858 53.9166 119.647C53.1804 119.437 52.8124 119.069 52.8124 118.543C52.8124 117.912 53.1279 117.597 53.7589 117.597C54.1795 117.597 54.7054 117.702 55.3364 117.912C56.0726 118.017 57.1242 118.07 58.4914 118.07C62.593 118.07 66.4842 117.544 70.165 116.492C73.9511 115.335 77.2639 113.705 80.1034 111.602C82.9429 109.499 85.204 106.975 86.8867 104.03C88.5694 100.98 89.4107 97.6147 89.4107 93.9338C89.4107 88.5702 87.36 84.2058 83.2584 80.8404C79.2621 77.475 73.2675 75.7923 65.2747 75.7923C60.7525 75.7923 56.1777 76.6337 51.5503 78.3164C46.923 79.8939 42.7162 82.155 38.9302 85.0997C35.2493 87.9392 32.1995 91.4098 29.7806 95.5113C27.4669 99.6128 26.3101 104.082 26.3101 108.92C26.3101 112.811 27.3092 116.44 29.3074 119.805C31.4107 123.065 34.1451 125.905 37.5104 128.324C40.8758 130.743 44.7144 132.636 49.0263 134.003C53.3382 135.37 57.7027 136.053 62.1197 136.053C72.8468 136.053 82.6274 134.318 91.4615 130.848C100.296 127.272 109.025 121.803 117.648 114.442C111.969 110.024 107.237 105.029 103.451 99.4551C99.7698 93.8812 97.9293 87.466 97.9293 80.2094C97.9293 76.0027 98.6129 72.3744 99.9801 69.3245C101.452 66.1695 103.345 63.5403 105.659 61.4369C107.973 59.3336 110.497 57.7561 113.231 56.7044C116.071 55.6527 118.91 55.1269 121.75 55.1269C125.326 55.1269 128.744 55.7579 132.004 57.0199C135.369 58.1767 138.472 59.8068 141.311 61.9102C144.151 63.9084 146.675 66.2747 148.883 69.009C151.197 71.7434 153.09 74.6355 154.562 77.6854C162.765 68.7461 170.443 61.0688 177.594 54.6536C184.745 48.2384 191.108 42.98 196.682 38.8784C202.361 34.7769 207.146 31.7796 211.037 29.8866C214.929 27.8884 217.768 26.8893 219.556 26.8893C220.082 26.8893 220.345 27.2574 220.345 27.9936C220.345 28.2039 219.714 29.0453 218.452 30.5176C217.19 31.8848 215.402 33.9881 213.088 36.8277C210.88 39.6672 208.198 43.3481 205.043 47.8703C201.888 52.2873 198.417 57.5983 194.631 63.8032C191.371 69.0616 188.321 74.2674 185.482 79.4206C182.747 84.5739 180.065 89.7271 177.436 94.8803C174.912 100.034 172.388 105.239 169.864 110.498C167.445 115.651 164.921 120.804 162.292 125.957C164.501 125.957 166.709 125.694 168.918 125.169C171.231 124.643 173.65 123.907 176.174 122.96C178.383 122.119 180.223 121.225 181.696 120.278C183.168 119.227 184.377 118.28 185.324 117.439C186.375 116.597 187.164 115.914 187.69 115.388C188.216 114.757 188.584 114.442 188.794 114.442C189.32 114.442 189.583 114.704 189.583 115.23C189.583 115.546 188.952 116.335 187.69 117.597C186.533 118.859 184.798 120.226 182.484 121.698C180.171 123.17 177.226 124.538 173.65 125.8C170.18 126.956 166.183 127.64 161.661 127.85L158.19 137H146.832Z" fill="black"></path><path d="M473.648 136.564H473.987C474.303 136.564 474.597 136.429 474.868 136.157C475.139 135.886 475.365 135.57 475.546 135.208C475.772 134.847 475.93 134.462 476.021 134.056C476.111 133.604 476.156 133.197 476.156 132.835V96.7651C476.156 96.4487 476.111 96.0871 476.021 95.6803C475.93 95.2735 475.772 94.8893 475.546 94.5277C475.365 94.1209 475.117 93.8045 474.8 93.5785C474.529 93.3073 474.213 93.1717 473.851 93.1717H473.512V92.4937H484.631C488.835 92.4937 492.112 93.4203 494.463 95.2735C496.858 97.1267 498.056 99.5901 498.056 102.664C498.056 103.975 497.83 105.15 497.378 106.189C496.926 107.229 496.338 108.156 495.615 108.969C494.937 109.783 494.191 110.483 493.378 111.071C492.564 111.613 491.796 112.065 491.073 112.427C492.971 112.789 494.553 113.399 495.819 114.258C497.084 115.117 498.101 116.111 498.87 117.241C499.683 118.326 500.248 119.501 500.565 120.767C500.881 122.032 501.039 123.275 501.039 124.496C501.039 126.846 500.61 128.835 499.751 130.462C498.892 132.044 497.74 133.355 496.293 134.395C494.892 135.389 493.265 136.112 491.412 136.564C489.604 137.016 487.728 137.242 485.784 137.242H473.648V136.564ZM496.429 124.902C496.067 121.422 494.892 118.733 492.903 116.834C490.914 114.936 488.112 113.987 484.496 113.987H480.699V135.005H484.631C488.293 135.005 491.163 134.191 493.242 132.564C495.367 130.892 496.429 128.586 496.429 125.648V124.902ZM493.649 103.274C493.513 100.652 492.587 98.5731 490.869 97.0363C489.197 95.4995 486.937 94.7311 484.089 94.7311H480.699V111.817H484.225C486.123 111.817 487.66 111.568 488.835 111.071C490.056 110.574 491.027 109.941 491.751 109.173C492.474 108.359 492.971 107.478 493.242 106.528C493.513 105.579 493.649 104.653 493.649 103.749V103.274ZM516.244 136.564H516.583V137.242H506.82V136.564H507.159C507.52 136.564 507.837 136.451 508.108 136.225C508.379 135.954 508.605 135.638 508.786 135.276C509.012 134.914 509.17 134.53 509.261 134.123C509.351 133.717 509.396 133.332 509.396 132.971V96.6973C509.396 96.3809 509.351 96.0193 509.261 95.6125C509.17 95.2057 509.012 94.8215 508.786 94.4599C508.605 94.0983 508.379 93.8045 508.108 93.5785C507.837 93.3073 507.52 93.1717 507.159 93.1717H506.82V92.4937H532.923V99.6805H532.245C532.245 98.0533 531.883 96.8555 531.16 96.0871C530.482 95.2735 529.397 94.8667 527.906 94.8667H514.007V132.971C514.007 133.332 514.052 133.717 514.142 134.123C514.233 134.53 514.368 134.914 514.549 135.276C514.775 135.638 515.024 135.954 515.295 136.225C515.566 136.451 515.882 136.564 516.244 136.564ZM537.012 136.564H537.351C537.713 136.564 538.029 136.451 538.301 136.225C538.572 135.954 538.798 135.638 538.979 135.276C539.205 134.914 539.363 134.53 539.453 134.123C539.589 133.717 539.657 133.332 539.657 132.971V96.6973C539.657 96.3809 539.589 96.0193 539.453 95.6125C539.363 95.2057 539.205 94.8215 538.979 94.4599C538.798 94.0983 538.572 93.8045 538.301 93.5785C538.029 93.3073 537.713 93.1717 537.351 93.1717H537.012V92.4937H563.116V98.7991H562.438C562.347 97.7595 561.94 96.8555 561.217 96.0871C560.494 95.2735 559.364 94.8667 557.827 94.8667H544.199V112.02H555.454C556.494 112.02 557.353 111.704 558.031 111.071C558.754 110.438 559.115 109.692 559.115 108.834H559.793V117.309H559.115C559.115 116.495 558.776 115.795 558.098 115.207C557.42 114.619 556.539 114.326 555.454 114.326H544.199V134.869H559.048C559.906 134.869 560.652 134.666 561.285 134.259C561.918 133.852 562.438 133.378 562.844 132.835C563.296 132.248 563.613 131.637 563.794 131.005C564.02 130.327 564.133 129.761 564.133 129.309H564.811V137.242H537.012V136.564ZM596.972 136.564H597.311C597.627 136.564 597.921 136.451 598.192 136.225C598.464 135.954 598.69 135.638 598.871 135.276C599.097 134.869 599.255 134.462 599.345 134.056C599.436 133.604 599.481 133.197 599.481 132.835V114.393H577.784V132.835C577.784 133.197 577.83 133.604 577.92 134.056C578.01 134.462 578.146 134.847 578.327 135.208C578.508 135.57 578.711 135.886 578.937 136.157C579.208 136.429 579.525 136.564 579.886 136.564H580.225V137.242H570.733V136.564H571.072C571.389 136.564 571.682 136.451 571.954 136.225C572.225 135.954 572.451 135.638 572.632 135.276C572.858 134.869 573.016 134.462 573.106 134.056C573.197 133.604 573.242 133.197 573.242 132.835V96.6973C573.242 96.3809 573.197 96.0193 573.106 95.6125C573.016 95.2057 572.88 94.8215 572.699 94.4599C572.519 94.0983 572.293 93.8045 572.021 93.5785C571.75 93.3073 571.434 93.1717 571.072 93.1717H570.733V92.4937H580.225V93.1717H579.886C579.525 93.1717 579.208 93.3073 578.937 93.5785C578.666 93.8045 578.44 94.0983 578.259 94.4599C578.123 94.8215 578.01 95.2057 577.92 95.6125C577.83 96.0193 577.784 96.3809 577.784 96.6973V112.02H599.481V96.6973C599.481 96.3809 599.436 96.0193 599.345 95.6125C599.255 95.2057 599.119 94.8215 598.938 94.4599C598.758 94.0983 598.531 93.8045 598.26 93.5785C597.989 93.3073 597.673 93.1717 597.311 93.1717H596.972V92.4937H606.464V93.1717H606.125C605.764 93.1717 605.447 93.3073 605.176 93.5785C604.905 93.8045 604.679 94.0983 604.498 94.4599C604.362 94.8215 604.249 95.2057 604.159 95.6125C604.069 96.0193 604.023 96.3809 604.023 96.6973V132.835C604.023 133.197 604.069 133.604 604.159 134.056C604.295 134.462 604.453 134.847 604.634 135.208C604.814 135.57 605.018 135.886 605.244 136.157C605.515 136.429 605.809 136.564 606.125 136.564H606.464V137.242H596.972V136.564ZM639.081 136.564H639.42C639.782 136.564 640.098 136.451 640.369 136.225C640.641 135.954 640.867 135.638 641.047 135.276C641.273 134.869 641.432 134.462 641.522 134.056C641.612 133.604 641.658 133.197 641.658 132.835V101.782L619.148 132.225V132.835C619.148 133.197 619.193 133.604 619.283 134.056C619.419 134.462 619.577 134.847 619.758 135.208C619.939 135.57 620.165 135.886 620.436 136.157C620.707 136.429 621.024 136.564 621.385 136.564H621.724V137.242H612.096V136.564H612.435C612.797 136.564 613.113 136.451 613.385 136.225C613.656 135.954 613.882 135.638 614.063 135.276C614.289 134.869 614.447 134.462 614.537 134.056C614.628 133.604 614.673 133.197 614.673 132.835V96.6973C614.673 96.3809 614.628 96.0193 614.537 95.6125C614.447 95.2057 614.289 94.8215 614.063 94.4599C613.882 94.0983 613.656 93.8045 613.385 93.5785C613.113 93.3073 612.797 93.1717 612.435 93.1717H612.096V92.4937H621.724V93.1717H621.182C620.865 93.2169 620.572 93.3751 620.3 93.6463C620.074 93.9175 619.871 94.2339 619.69 94.5955C619.509 94.9119 619.374 95.2735 619.283 95.6803C619.193 96.0419 619.148 96.3809 619.148 96.6973V128.021L641.658 97.5787V96.6973C641.658 96.3809 641.612 96.0193 641.522 95.6125C641.432 95.2057 641.273 94.8215 641.047 94.4599C640.867 94.0983 640.641 93.8045 640.369 93.5785C640.098 93.3073 639.782 93.1717 639.42 93.1717H639.081V92.4937H648.709V93.1717H648.37C648.008 93.1717 647.692 93.3073 647.421 93.5785C647.149 93.8045 646.923 94.0983 646.743 94.4599C646.562 94.8215 646.404 95.2057 646.268 95.6125C646.178 96.0193 646.132 96.3809 646.132 96.6973V132.835C646.132 133.197 646.178 133.581 646.268 133.988C646.404 134.395 646.562 134.801 646.743 135.208C646.923 135.57 647.149 135.886 647.421 136.157C647.692 136.429 648.008 136.564 648.37 136.564H648.709V137.242H639.081V136.564ZM680.966 83.6118C680.966 84.3802 680.785 85.1712 680.424 85.9848C680.062 86.7984 679.542 87.5668 678.864 88.29C678.232 89.0132 677.441 89.6008 676.491 90.0528C675.587 90.5048 674.57 90.7308 673.44 90.7308C672.355 90.7308 671.338 90.5274 670.389 90.1206C669.485 89.6686 668.694 89.1036 668.016 88.4256C667.338 87.7476 666.796 86.9792 666.389 86.1204C665.982 85.2616 665.779 84.4254 665.779 83.6118H666.186C666.231 83.883 666.366 84.2672 666.592 84.7644C666.864 85.2616 667.27 85.7588 667.813 86.256C668.355 86.7532 669.078 87.1826 669.982 87.5442C670.886 87.9058 672.016 88.0866 673.372 88.0866C674.774 88.0866 675.904 87.9058 676.763 87.5442C677.667 87.1826 678.39 86.7532 678.932 86.256C679.475 85.7588 679.859 85.2616 680.085 84.7644C680.311 84.2672 680.469 83.883 680.559 83.6118H680.966ZM682.119 136.564H682.458C682.819 136.564 683.136 136.451 683.407 136.225C683.678 135.954 683.904 135.638 684.085 135.276C684.311 134.869 684.469 134.462 684.56 134.056C684.65 133.604 684.695 133.197 684.695 132.835V101.782L662.185 132.225V132.835C662.185 133.197 662.231 133.604 662.321 134.056C662.457 134.462 662.615 134.847 662.796 135.208C662.976 135.57 663.202 135.886 663.474 136.157C663.745 136.429 664.061 136.564 664.423 136.564H664.762V137.242H655.134V136.564H655.473C655.835 136.564 656.151 136.451 656.422 136.225C656.693 135.954 656.919 135.638 657.1 135.276C657.326 134.869 657.484 134.462 657.575 134.056C657.665 133.604 657.71 133.197 657.71 132.835V96.6973C657.71 96.3809 657.665 96.0193 657.575 95.6125C657.484 95.2057 657.326 94.8215 657.1 94.4599C656.919 94.0983 656.693 93.8045 656.422 93.5785C656.151 93.3073 655.835 93.1717 655.473 93.1717H655.134V92.4937H664.762V93.1717H664.219C663.903 93.2169 663.609 93.3751 663.338 93.6463C663.112 93.9175 662.909 94.2339 662.728 94.5955C662.547 94.9119 662.411 95.2735 662.321 95.6803C662.231 96.0419 662.185 96.3809 662.185 96.6973V128.021L684.695 97.5787V96.6973C684.695 96.3809 684.65 96.0193 684.56 95.6125C684.469 95.2057 684.311 94.8215 684.085 94.4599C683.904 94.0983 683.678 93.8045 683.407 93.5785C683.136 93.3073 682.819 93.1717 682.458 93.1717H682.119V92.4937H691.746V93.1717H691.407C691.046 93.1717 690.729 93.3073 690.458 93.5785C690.187 93.8045 689.961 94.0983 689.78 94.4599C689.599 94.8215 689.441 95.2057 689.306 95.6125C689.215 96.0193 689.17 96.3809 689.17 96.6973V132.835C689.17 133.197 689.215 133.581 689.306 133.988C689.441 134.395 689.599 134.801 689.78 135.208C689.961 135.57 690.187 135.886 690.458 136.157C690.729 136.429 691.046 136.564 691.407 136.564H691.746V137.242H682.119V136.564Z" fill="black"></path><path d="M487.694 32.2529C487.694 28.8875 485.275 27.2048 480.437 27.2048C476.756 27.2048 472.97 28.2039 469.079 30.2021C465.188 32.2003 461.717 34.1459 458.667 36.0389C460.455 38.0371 462.138 39.9301 463.715 41.718C465.293 43.4007 466.082 44.3472 466.082 44.5575C466.082 45.1885 465.819 45.504 465.293 45.504C465.083 45.504 464.82 45.3463 464.504 45.0308C464.294 44.7153 463.926 44.242 463.4 43.611C462.874 42.98 462.085 42.1386 461.034 41.087C460.087 39.9301 458.772 38.5629 457.09 36.9854C452.357 40.3508 448.413 44.242 445.258 48.6591C442.209 52.9709 440.684 57.8086 440.684 63.1722C445.416 62.436 450.517 61.0688 455.986 59.0707C461.454 56.9673 466.555 54.5484 471.287 51.8141C476.02 48.9746 479.911 45.8721 482.961 42.5067C486.116 39.1414 487.694 35.7234 487.694 32.2529ZM464.346 101.979C464.346 98.7189 463.505 96.0897 461.822 94.0915C460.14 91.9882 457.616 90.9365 454.25 90.9365C451.095 90.9365 447.835 92.3037 444.47 95.038C441.104 97.6672 438.054 101.033 435.32 105.134C432.586 109.236 430.325 113.705 428.537 118.543C426.749 123.381 425.855 127.956 425.855 132.267V134.318C425.855 135.16 425.908 135.738 426.013 136.053C430.114 136.264 434.426 135.422 438.948 133.529C443.471 131.531 447.625 128.902 451.411 125.642C455.197 122.382 458.299 118.701 460.718 114.599C463.137 110.393 464.346 106.186 464.346 101.979ZM399.353 42.98C399.353 46.6609 400.089 49.8159 401.561 52.4451C403.139 55.0743 405.19 57.2828 407.714 59.0707C410.238 60.7533 413.182 62.0154 416.548 62.8567C419.913 63.698 423.489 64.1187 427.275 64.1187C428.116 64.1187 429.01 64.1187 429.957 64.1187C430.903 64.0135 431.85 63.9084 432.796 63.8032C432.691 63.067 432.586 62.3834 432.481 61.7524C432.481 61.0163 432.481 60.2275 432.481 59.3862C432.481 56.4415 433.059 53.7071 434.216 51.1831C435.478 48.5539 437.108 46.135 439.106 43.9265C441.104 41.718 443.313 39.7724 445.732 38.0897C448.151 36.3018 450.569 34.7769 452.988 33.5149C449.097 30.465 444.838 28.0987 440.21 26.4161C435.688 24.6282 430.903 23.7343 425.855 23.7343C423.331 23.7343 420.491 24.1549 417.336 24.9963C414.287 25.7325 411.394 26.8893 408.66 28.4668C406.031 30.0443 403.822 32.0425 402.034 34.4614C400.247 36.8803 399.353 39.7198 399.353 42.98ZM444.47 73.5838C441.42 72.5321 438.317 70.5339 435.162 67.5893C431.587 68.4306 428.432 68.8513 425.697 68.8513C421.385 68.8513 417.389 68.3254 413.708 67.2737C410.027 66.2221 406.82 64.7497 404.085 62.8567C401.351 60.9637 399.195 58.65 397.617 55.9156C396.04 53.0761 395.251 49.9211 395.251 46.4505C395.251 42.4541 396.198 38.931 398.091 35.8812C399.984 32.8313 402.403 30.2547 405.347 28.1513C408.292 26.048 411.605 24.4705 415.286 23.4188C418.966 22.3671 422.595 21.8413 426.17 21.8413C431.534 21.8413 436.582 22.8404 441.315 24.8385C446.152 26.7316 450.569 29.3082 454.566 32.5684C458.562 30.6754 462.664 28.9927 466.87 27.5203C471.182 26.048 475.705 25.3118 480.437 25.3118C483.277 25.3118 485.485 25.9428 487.063 27.2048C488.745 28.3617 489.587 30.4124 489.587 33.3571C489.587 35.776 488.64 38.3 486.747 40.9292C484.854 43.4532 482.435 45.9247 479.491 48.3435C476.546 50.7624 473.233 53.0235 469.552 55.1269C465.871 57.2302 462.243 59.1232 458.667 60.8059C455.092 62.3834 451.726 63.698 448.571 64.7497C445.416 65.6962 442.892 66.2221 440.999 66.3272C441.525 68.1151 442.314 69.6926 443.365 71.0598C444.522 72.3218 446.1 72.9528 448.098 72.9528C448.624 72.9528 449.36 72.8476 450.306 72.6373C451.358 72.427 452.568 72.3218 453.935 72.3218C455.407 72.3218 456.827 72.5847 458.194 73.1106C459.561 73.5312 460.245 74.0571 460.245 74.6881C460.245 76.0553 459.035 76.7388 456.617 76.7388C453.882 76.7388 451.884 76.4233 450.622 75.7923C449.36 75.1613 448.256 74.8458 447.309 74.8458C444.154 74.8458 440.368 75.8449 435.951 77.8431C431.639 79.7361 427.485 82.5231 423.489 86.204C419.597 89.7797 416.285 94.1967 413.55 99.4551C410.816 104.608 409.449 110.393 409.449 116.808C409.449 122.802 410.606 127.325 412.919 130.374C415.233 133.319 418.914 135.16 423.962 135.896C423.752 134.949 423.594 133.95 423.489 132.898C423.384 131.847 423.331 130.795 423.331 129.743C423.331 123.749 424.172 118.228 425.855 113.179C427.538 108.131 429.799 103.767 432.638 100.086C435.478 96.4052 438.738 93.5657 442.419 91.5675C446.205 89.4642 450.096 88.4125 454.093 88.4125C457.984 88.4125 460.981 89.7797 463.084 92.514C465.188 95.2484 466.239 98.4034 466.239 101.979C466.239 106.607 464.977 111.076 462.453 115.388C459.929 119.595 456.669 123.381 452.673 126.746C448.782 130.006 444.47 132.688 439.737 134.791C435.005 136.79 430.482 137.841 426.17 137.947C426.276 139.629 426.486 141.259 426.801 142.837C427.222 144.519 427.59 146.044 427.906 147.412C428.326 148.779 428.642 149.883 428.852 150.724C429.168 151.671 429.326 152.302 429.326 152.617C429.326 152.933 429.063 153.091 428.537 153.091C428.116 153.091 427.801 152.617 427.59 151.671C427.485 150.724 427.012 148.937 426.17 146.307C425.645 144.835 425.224 143.31 424.908 141.733C424.698 140.26 424.488 138.998 424.277 137.947C420.702 137.947 417.336 137.473 414.181 136.527C411.131 135.475 408.45 134.003 406.136 132.11C403.822 130.217 401.982 127.85 400.615 125.011C399.353 122.066 398.722 118.701 398.722 114.915C398.722 109.236 400.141 104.082 402.981 99.4551C405.926 94.7225 409.659 90.621 414.181 87.1505C418.704 83.5748 423.646 80.6826 429.01 78.4741C434.374 76.1604 439.527 74.6355 444.47 73.8993V73.5838Z" fill="black"></path></svg> 