<?xml version="1.0" encoding="UTF-8"?> <svg xmlns="http://www.w3.org/2000/svg" width="344" height="114" viewBox="0 0 344 114" fill="none"><path d="M78.2567 36.5309C78.2567 36.8187 77.8969 37.2025 77.1773 37.6823C73.7711 39.9851 71.8761 41.2564 71.4923 41.4963C69.3334 42.7916 67.5344 43.4392 66.0951 43.4392C65.2796 43.4392 64.5839 43.1514 64.0082 42.5757C63.4805 42 63.2166 41.3044 63.2166 40.4888C63.2166 38.0901 64.7518 34.6599 67.8222 30.1982C68.0621 29.8624 68.182 29.6465 68.182 29.5505C68.182 29.5026 68.1581 29.4786 68.1101 29.4786C67.9182 29.4786 67.5824 29.6465 67.1026 29.9823C64.416 31.9973 61.4416 34.2281 58.1793 36.6748C56.788 37.8742 54.7491 39.5533 52.0625 41.7122C51.6787 42 51.151 42.2639 50.4793 42.5037C50.1435 42.5037 49.9756 42.2639 49.9756 41.7841C49.9756 40.8246 50.7672 39.2894 52.3504 37.1785C53.9815 35.0197 54.7971 33.5085 54.7971 32.6449C54.7971 31.8293 54.4133 31.4216 53.6457 31.4216C52.4943 31.4216 50.1915 32.9807 46.7373 36.0991C44.3865 38.21 42.3236 40.2489 40.5486 42.2159C39.8769 42.9355 39.3492 43.2953 38.9654 43.2953C38.3417 43.2953 38.0299 42.9595 38.0299 42.2878C38.0299 42.0959 38.1978 41.6162 38.5336 40.8486C39.685 39.2654 40.8124 37.6823 41.9158 36.0991C43.595 33.7004 44.4345 31.9973 44.4345 30.9898C44.4345 30.558 44.2906 30.3421 44.0027 30.3421C43.8588 30.3421 43.571 30.4381 43.1392 30.63C40.6925 32.453 37.2143 35.0437 32.7047 38.4019H32.2009C31.8651 38.4019 31.6972 38.3539 31.6972 38.258C31.6972 38.114 31.9611 37.8742 32.4888 37.5383C35.847 34.8997 39.5651 32.0452 43.6429 28.9748C44.2186 28.4951 44.9622 28.2552 45.8738 28.2552C46.8333 28.2552 47.313 28.687 47.313 29.5505C47.313 29.7424 47.265 30.0303 47.1691 30.4141C46.2096 32.0932 44.9862 34.2281 43.499 36.8187C43.3071 37.1545 43.2112 37.3704 43.2112 37.4664C43.2112 37.5144 43.2591 37.5383 43.3551 37.5383L43.571 37.4664C45.346 35.9312 47.1211 34.396 48.8962 32.8608C51.6307 30.558 53.5977 29.4066 54.7971 29.4066C56.3802 29.4066 57.1718 29.9104 57.1718 30.9178C57.1718 31.7814 56.6921 33.1007 55.7326 34.8757C54.8211 36.6028 54.3653 37.5383 54.3653 37.6823C54.3653 37.8262 54.4133 37.8982 54.5092 37.8982C54.7011 37.8982 55.0369 37.7302 55.5167 37.3944L70.4848 26.0964C70.9646 25.7126 71.4683 25.5207 71.996 25.5207C72.3319 25.5207 72.5717 25.5926 72.7157 25.7365C72.8596 25.8325 72.9315 26.0244 72.9315 26.3122C72.9315 26.6481 72.8356 26.9359 72.6437 27.1758C71.3004 29.0948 69.9331 31.0378 68.5419 33.0047C66.9107 35.4994 66.0951 37.6583 66.0951 39.4813C66.0951 40.6327 66.7188 41.1844 67.9662 41.1365C69.4534 41.0885 71.1325 40.4888 73.0035 39.3374C74.5387 38.3779 76.0739 37.4184 77.6091 36.4589C77.753 36.315 77.8969 36.243 78.0409 36.243C78.1848 36.243 78.2567 36.339 78.2567 36.5309ZM101.538 36.5309C101.538 36.8187 101.178 37.2025 100.458 37.6823C94.5573 41.6642 90.5754 43.6551 88.5125 43.6551C87.1692 43.6551 86.4975 42.8875 86.4975 41.3523C86.4975 40.4888 86.6655 39.6252 87.0013 38.7617C87.481 37.5623 87.7209 36.9387 87.7209 36.8907C87.7209 36.6988 87.6489 36.6028 87.505 36.6028C87.457 36.6028 87.3371 36.6508 87.1452 36.7468C86.0898 37.8022 84.5546 39.0735 82.5396 40.5608C79.949 42.4797 78.1499 43.4392 77.1425 43.4392C75.9911 43.4392 75.4154 42.8635 75.4154 41.7122C75.4154 41.0405 76.2549 39.1935 77.934 36.1711C79.6132 33.1007 80.4527 31.3256 80.4527 30.8459C80.4527 30.3181 80.0209 30.0543 79.1574 30.0543C78.9655 30.0543 78.8695 29.7664 78.8695 29.1907C79.3013 29.0468 79.7571 28.9748 80.2368 28.9748C81.9159 28.9748 82.7555 29.4546 82.7555 30.4141C82.7555 31.4695 82.0119 33.2446 80.5247 35.7393C79.0375 38.234 78.2939 39.7932 78.2939 40.4168C78.2939 40.8006 78.4618 40.9925 78.7976 40.9925C79.5652 40.9925 81.4362 39.7212 84.4106 37.1785C87.4331 34.6359 89.7598 32.3331 91.391 30.2702C92.1106 29.5505 92.6383 29.1907 92.9741 29.1907C93.5978 29.1907 93.9096 29.5026 93.9096 30.1262C93.9096 30.4621 93.7417 30.8938 93.4059 31.4216C90.5274 35.7393 89.0882 38.5458 89.0882 39.8411C89.0882 41.0405 89.6399 41.6402 90.7433 41.6402C92.4224 41.6402 95.4688 40.129 99.8825 37.1066C100.122 36.9147 100.458 36.6988 100.89 36.4589C101.034 36.315 101.178 36.243 101.322 36.243C101.466 36.243 101.538 36.339 101.538 36.5309ZM102.778 40.2729C103.162 40.2729 104.098 39.9371 105.585 39.2654C108.224 38.0181 110.55 36.5309 112.565 34.8038C114.628 33.0287 116.379 31.2057 117.819 29.3347C118.538 28.615 119.066 28.2552 119.402 28.2552C120.025 28.2552 120.337 28.5671 120.337 29.1907C120.337 29.5745 120.169 30.0063 119.833 30.486C116.955 34.8038 115.516 37.6103 115.516 38.9056C115.516 40.105 116.067 40.7047 117.171 40.7047C118.85 40.7047 121.896 39.1935 126.31 36.1711C126.406 36.0751 126.622 35.9072 126.958 35.6673C127.342 35.4275 127.605 35.3075 127.749 35.3075C127.893 35.3075 127.965 35.4035 127.965 35.5954C127.965 35.8832 127.605 36.267 126.886 36.7468C120.937 40.7287 116.955 42.7196 114.94 42.7196C113.597 42.7196 112.925 41.952 112.925 40.4168C112.925 39.9371 112.973 39.4333 113.069 38.9056C113.213 38.3299 113.357 37.8262 113.501 37.3944C113.693 36.9626 113.837 36.6028 113.933 36.315C114.076 36.0271 114.148 35.9072 114.148 35.9552C114.148 35.7633 114.076 35.6673 113.933 35.6673C113.693 35.6673 113.189 35.9552 112.421 36.5309C111.702 37.1066 110.502 37.8742 108.823 38.8337C108.008 39.2175 107.264 39.6013 106.592 39.9851C105.921 40.3689 105.273 40.7287 104.649 41.0645C104.026 41.4003 103.426 41.6642 102.85 41.8561C102.275 42.048 101.675 42.1199 101.051 42.072C100.38 42.024 99.78 41.8801 99.2523 41.6402C98.6766 41.3523 98.3887 40.7527 98.3887 39.8411C98.3887 39.3134 98.5327 38.8577 98.8205 38.4739C99.0604 38.0901 99.3242 37.8982 99.6121 37.8982C99.852 37.8982 100.044 38.0181 100.188 38.258C100.332 38.4978 100.5 38.7857 100.692 39.1215C100.883 39.4094 101.099 39.6732 101.339 39.9131C101.579 40.153 101.915 40.2729 102.347 40.2729H102.778ZM149.958 36.5309C149.958 36.8187 149.598 37.2025 148.878 37.6823C142.977 41.6642 138.995 43.6551 136.932 43.6551C135.589 43.6551 134.917 42.8875 134.917 41.3523C134.917 40.4888 135.085 39.6252 135.421 38.7617C135.901 37.5623 136.141 36.9387 136.141 36.8907C136.141 36.6988 136.069 36.6028 135.925 36.6028C135.877 36.6028 135.757 36.6508 135.565 36.7468C134.51 37.8022 132.974 39.0735 130.959 40.5608C128.369 42.4797 126.57 43.4392 125.562 43.4392C124.411 43.4392 123.835 42.8635 123.835 41.7122C123.835 41.0405 124.675 39.1935 126.354 36.1711C128.033 33.1007 128.873 31.3256 128.873 30.8459C128.873 30.3181 128.441 30.0543 127.577 30.0543C127.385 30.0543 127.289 29.7664 127.289 29.1907C127.721 29.0468 128.177 28.9748 128.657 28.9748C130.336 28.9748 131.175 29.4546 131.175 30.4141C131.175 31.4695 130.432 33.2446 128.945 35.7393C127.457 38.234 126.714 39.7932 126.714 40.4168C126.714 40.8006 126.882 40.9925 127.217 40.9925C127.985 40.9925 129.856 39.7212 132.831 37.1785C135.853 34.6359 138.18 32.3331 139.811 30.2702C140.53 29.5505 141.058 29.1907 141.394 29.1907C142.018 29.1907 142.33 29.5026 142.33 30.1262C142.33 30.4621 142.162 30.8938 141.826 31.4216C138.947 35.7393 137.508 38.5458 137.508 39.8411C137.508 41.0405 138.06 41.6402 139.163 41.6402C140.842 41.6402 143.889 40.129 148.302 37.1066C148.542 36.9147 148.878 36.6988 149.31 36.4589C149.454 36.315 149.598 36.243 149.742 36.243C149.886 36.243 149.958 36.339 149.958 36.5309ZM176.025 32.9328C176.025 33.6524 175.474 34.2761 174.37 34.8038C173.267 35.3315 172.115 35.5954 170.916 35.5954C169.573 35.5954 167.798 35.1636 165.591 34.3C163.384 33.3885 161.657 32.9328 160.409 32.9328C159.882 32.9328 159.138 33.1726 158.179 33.6524C157.219 34.0842 156.619 34.3 156.38 34.3L156.236 34.2281C156.236 33.8923 156.811 33.3405 157.963 32.573C159.354 31.7094 160.769 31.2776 162.209 31.2776C163.408 31.2776 165.183 31.7814 167.534 32.7888C169.884 33.7483 171.468 34.2281 172.283 34.2281C173.195 34.2281 174.01 33.9882 174.73 33.5085C175.498 32.9807 175.857 32.7169 175.809 32.7169C175.953 32.7169 176.025 32.7888 176.025 32.9328ZM224.641 36.5309C224.641 36.8187 224.281 37.2025 223.561 37.6823C220.155 39.9851 218.26 41.2564 217.876 41.4963C215.717 42.7916 213.918 43.4392 212.479 43.4392C211.664 43.4392 210.968 43.1514 210.392 42.5757C209.865 42 209.601 41.3044 209.601 40.4888C209.601 38.0901 211.136 34.6599 214.206 30.1982C214.446 29.8624 214.566 29.6465 214.566 29.5505C214.566 29.5026 214.542 29.4786 214.494 29.4786C214.302 29.4786 213.966 29.6465 213.487 29.9823C210.8 31.9973 207.826 34.2281 204.563 36.6748C203.172 37.8742 201.133 39.5533 198.447 41.7122C198.063 42 197.535 42.2639 196.863 42.5037C196.528 42.5037 196.36 42.2639 196.36 41.7841C196.36 40.8246 197.151 39.2894 198.734 37.1785C200.366 35.0197 201.181 33.5085 201.181 32.6449C201.181 31.8293 200.797 31.4216 200.03 31.4216C198.878 31.4216 196.576 32.9807 193.121 36.0991C190.771 38.21 188.708 40.2489 186.933 42.2159C186.261 42.9355 185.733 43.2953 185.349 43.2953C184.726 43.2953 184.414 42.9595 184.414 42.2878C184.414 42.0959 184.582 41.6162 184.918 40.8486C186.069 39.2654 187.196 37.6823 188.3 36.0991C189.979 33.7004 190.819 31.9973 190.819 30.9898C190.819 30.558 190.675 30.3421 190.387 30.3421C190.243 30.3421 189.955 30.4381 189.523 30.63C187.077 32.453 183.598 35.0437 179.089 38.4019H178.585C178.249 38.4019 178.081 38.3539 178.081 38.258C178.081 38.114 178.345 37.8742 178.873 37.5383C182.231 34.8997 185.949 32.0452 190.027 28.9748C190.603 28.4951 191.346 28.2552 192.258 28.2552C193.217 28.2552 193.697 28.687 193.697 29.5505C193.697 29.7424 193.649 30.0303 193.553 30.4141C192.594 32.0932 191.37 34.2281 189.883 36.8187C189.691 37.1545 189.595 37.3704 189.595 37.4664C189.595 37.5144 189.643 37.5383 189.739 37.5383L189.955 37.4664C191.73 35.9312 193.505 34.396 195.28 32.8608C198.015 30.558 199.982 29.4066 201.181 29.4066C202.764 29.4066 203.556 29.9104 203.556 30.9178C203.556 31.7814 203.076 33.1007 202.117 34.8757C201.205 36.6028 200.749 37.5383 200.749 37.6823C200.749 37.8262 200.797 37.8982 200.893 37.8982C201.085 37.8982 201.421 37.7302 201.901 37.3944L216.869 26.0964C217.349 25.7126 217.852 25.5207 218.38 25.5207C218.716 25.5207 218.956 25.5926 219.1 25.7365C219.244 25.8325 219.316 26.0244 219.316 26.3122C219.316 26.6481 219.22 26.9359 219.028 27.1758C217.684 29.0948 216.317 31.0378 214.926 33.0047C213.295 35.4994 212.479 37.6583 212.479 39.4813C212.479 40.6327 213.103 41.1844 214.35 41.1365C215.837 41.0885 217.517 40.4888 219.388 39.3374C220.923 38.3779 222.458 37.4184 223.993 36.4589C224.137 36.315 224.281 36.243 224.425 36.243C224.569 36.243 224.641 36.339 224.641 36.5309ZM247.922 36.5309C247.922 36.8187 247.562 37.2025 246.842 37.6823C240.941 41.6642 236.959 43.6551 234.897 43.6551C233.553 43.6551 232.882 42.8875 232.882 41.3523C232.882 40.4888 233.049 39.6252 233.385 38.7617C233.865 37.5623 234.105 36.9387 234.105 36.8907C234.105 36.6988 234.033 36.6028 233.889 36.6028C233.841 36.6028 233.721 36.6508 233.529 36.7468C232.474 37.8022 230.939 39.0735 228.924 40.5608C226.333 42.4797 224.534 43.4392 223.526 43.4392C222.375 43.4392 221.799 42.8635 221.799 41.7122C221.799 41.0405 222.639 39.1935 224.318 36.1711C225.997 33.1007 226.837 31.3256 226.837 30.8459C226.837 30.3181 226.405 30.0543 225.541 30.0543C225.35 30.0543 225.254 29.7664 225.254 29.1907C225.685 29.0468 226.141 28.9748 226.621 28.9748C228.3 28.9748 229.14 29.4546 229.14 30.4141C229.14 31.4695 228.396 33.2446 226.909 35.7393C225.421 38.234 224.678 39.7932 224.678 40.4168C224.678 40.8006 224.846 40.9925 225.182 40.9925C225.949 40.9925 227.82 39.7212 230.795 37.1785C233.817 34.6359 236.144 32.3331 237.775 30.2702C238.495 29.5505 239.022 29.1907 239.358 29.1907C239.982 29.1907 240.294 29.5026 240.294 30.1262C240.294 30.4621 240.126 30.8938 239.79 31.4216C236.911 35.7393 235.472 38.5458 235.472 39.8411C235.472 41.0405 236.024 41.6402 237.127 41.6402C238.806 41.6402 241.853 40.129 246.267 37.1066C246.506 36.9147 246.842 36.6988 247.274 36.4589C247.418 36.315 247.562 36.243 247.706 36.243C247.85 36.243 247.922 36.339 247.922 36.5309ZM249.162 40.2729C249.546 40.2729 250.482 39.9371 251.969 39.2654C254.608 38.0181 256.934 36.5309 258.949 34.8038C261.012 33.0287 262.763 31.2057 264.203 29.3347C264.922 28.615 265.45 28.2552 265.786 28.2552C266.409 28.2552 266.721 28.5671 266.721 29.1907C266.721 29.5745 266.553 30.0063 266.217 30.486C263.339 34.8038 261.9 37.6103 261.9 38.9056C261.9 40.105 262.451 40.7047 263.555 40.7047C265.234 40.7047 268.28 39.1935 272.694 36.1711C272.79 36.0751 273.006 35.9072 273.342 35.6673C273.726 35.4275 273.989 35.3075 274.133 35.3075C274.277 35.3075 274.349 35.4035 274.349 35.5954C274.349 35.8832 273.989 36.267 273.27 36.7468C267.321 40.7287 263.339 42.7196 261.324 42.7196C259.981 42.7196 259.309 41.952 259.309 40.4168C259.309 39.9371 259.357 39.4333 259.453 38.9056C259.597 38.3299 259.741 37.8262 259.885 37.3944C260.077 36.9626 260.221 36.6028 260.317 36.315C260.461 36.0271 260.532 35.9072 260.532 35.9552C260.532 35.7633 260.461 35.6673 260.317 35.6673C260.077 35.6673 259.573 35.9552 258.805 36.5309C258.086 37.1066 256.886 37.8742 255.207 38.8337C254.392 39.2175 253.648 39.6013 252.976 39.9851C252.305 40.3689 251.657 40.7287 251.033 41.0645C250.41 41.4003 249.81 41.6642 249.234 41.8561C248.659 42.048 248.059 42.1199 247.435 42.072C246.764 42.024 246.164 41.8801 245.636 41.6402C245.061 41.3523 244.773 40.7527 244.773 39.8411C244.773 39.3134 244.917 38.8577 245.205 38.4739C245.444 38.0901 245.708 37.8982 245.996 37.8982C246.236 37.8982 246.428 38.0181 246.572 38.258C246.716 38.4978 246.884 38.7857 247.076 39.1215C247.267 39.4094 247.483 39.6732 247.723 39.9131C247.963 40.153 248.299 40.2729 248.731 40.2729H249.162ZM296.342 36.5309C296.342 36.8187 295.982 37.2025 295.262 37.6823C289.361 41.6642 285.379 43.6551 283.316 43.6551C281.973 43.6551 281.301 42.8875 281.301 41.3523C281.301 40.4888 281.469 39.6252 281.805 38.7617C282.285 37.5623 282.525 36.9387 282.525 36.8907C282.525 36.6988 282.453 36.6028 282.309 36.6028C282.261 36.6028 282.141 36.6508 281.949 36.7468C280.894 37.8022 279.358 39.0735 277.344 40.5608C274.753 42.4797 272.954 43.4392 271.946 43.4392C270.795 43.4392 270.219 42.8635 270.219 41.7122C270.219 41.0405 271.059 39.1935 272.738 36.1711C274.417 33.1007 275.257 31.3256 275.257 30.8459C275.257 30.3181 274.825 30.0543 273.961 30.0543C273.769 30.0543 273.673 29.7664 273.673 29.1907C274.105 29.0468 274.561 28.9748 275.041 28.9748C276.72 28.9748 277.559 29.4546 277.559 30.4141C277.559 31.4695 276.816 33.2446 275.329 35.7393C273.841 38.234 273.098 39.7932 273.098 40.4168C273.098 40.8006 273.266 40.9925 273.601 40.9925C274.369 40.9925 276.24 39.7212 279.215 37.1785C282.237 34.6359 284.564 32.3331 286.195 30.2702C286.914 29.5505 287.442 29.1907 287.778 29.1907C288.402 29.1907 288.714 29.5026 288.714 30.1262C288.714 30.4621 288.546 30.8938 288.21 31.4216C285.331 35.7393 283.892 38.5458 283.892 39.8411C283.892 41.0405 284.444 41.6402 285.547 41.6402C287.226 41.6402 290.273 40.129 294.686 37.1066C294.926 36.9147 295.262 36.6988 295.694 36.4589C295.838 36.315 295.982 36.243 296.126 36.243C296.27 36.243 296.342 36.339 296.342 36.5309ZM78.2567 80.5309C78.2567 80.8187 77.8969 81.2025 77.1773 81.6823C73.7711 83.9851 71.8761 85.2564 71.4923 85.4963C69.3334 86.7916 67.5344 87.4392 66.0951 87.4392C65.2796 87.4392 64.5839 87.1514 64.0082 86.5757C63.4805 86 63.2166 85.3044 63.2166 84.4888C63.2166 82.0901 64.7518 78.6599 67.8222 74.1982C68.0621 73.8624 68.182 73.6465 68.182 73.5505C68.182 73.5026 68.1581 73.4786 68.1101 73.4786C67.9182 73.4786 67.5824 73.6465 67.1026 73.9823C64.416 75.9973 61.4416 78.2281 58.1793 80.6748C56.788 81.8742 54.7491 83.5533 52.0625 85.7122C51.6787 86 51.151 86.2639 50.4793 86.5037C50.1435 86.5037 49.9756 86.2639 49.9756 85.7841C49.9756 84.8246 50.7672 83.2894 52.3504 81.1785C53.9815 79.0197 54.7971 77.5085 54.7971 76.6449C54.7971 75.8293 54.4133 75.4216 53.6457 75.4216C52.4943 75.4216 50.1915 76.9807 46.7373 80.0991C44.3865 82.21 42.3236 84.2489 40.5486 86.2159C39.8769 86.9355 39.3492 87.2953 38.9654 87.2953C38.3417 87.2953 38.0299 86.9595 38.0299 86.2878C38.0299 86.0959 38.1978 85.6162 38.5336 84.8486C39.685 83.2654 40.8124 81.6823 41.9158 80.0991C43.595 77.7004 44.4345 75.9973 44.4345 74.9898C44.4345 74.558 44.2906 74.3421 44.0027 74.3421C43.8588 74.3421 43.571 74.4381 43.1392 74.63C40.6925 76.453 37.2143 79.0437 32.7047 82.4019H32.2009C31.8651 82.4019 31.6972 82.3539 31.6972 82.258C31.6972 82.114 31.9611 81.8742 32.4888 81.5383C35.847 78.8997 39.5651 76.0452 43.6429 72.9748C44.2186 72.4951 44.9622 72.2552 45.8738 72.2552C46.8333 72.2552 47.313 72.687 47.313 73.5505C47.313 73.7424 47.265 74.0303 47.1691 74.4141C46.2096 76.0932 44.9862 78.2281 43.499 80.8187C43.3071 81.1545 43.2112 81.3704 43.2112 81.4664C43.2112 81.5144 43.2591 81.5383 43.3551 81.5383L43.571 81.4664C45.346 79.9312 47.1211 78.396 48.8962 76.8608C51.6307 74.558 53.5977 73.4066 54.7971 73.4066C56.3802 73.4066 57.1718 73.9104 57.1718 74.9178C57.1718 75.7814 56.6921 77.1007 55.7326 78.8757C54.8211 80.6028 54.3653 81.5383 54.3653 81.6823C54.3653 81.8262 54.4133 81.8982 54.5092 81.8982C54.7011 81.8982 55.0369 81.7302 55.5167 81.3944L70.4848 70.0964C70.9646 69.7126 71.4683 69.5207 71.996 69.5207C72.3319 69.5207 72.5717 69.5926 72.7157 69.7365C72.8596 69.8325 72.9315 70.0244 72.9315 70.3122C72.9315 70.6481 72.8356 70.9359 72.6437 71.1758C71.3004 73.0948 69.9331 75.0378 68.5419 77.0047C66.9107 79.4994 66.0951 81.6583 66.0951 83.4813C66.0951 84.6327 66.7188 85.1844 67.9662 85.1365C69.4534 85.0885 71.1325 84.4888 73.0035 83.3374C74.5387 82.3779 76.0739 81.4184 77.6091 80.4589C77.753 80.315 77.8969 80.243 78.0409 80.243C78.1848 80.243 78.2567 80.339 78.2567 80.5309ZM95.133 80.5309C95.133 80.8667 94.1495 81.6583 92.1826 82.9056C87.3371 85.976 83.8589 87.5112 81.748 87.5112C78.6297 87.5112 77.0705 85.6882 77.0705 82.0421C77.0705 79.3555 78.3658 76.6689 80.9565 73.9823C83.5951 71.2478 86.0898 69.8805 88.4405 69.8805C89.1601 69.8805 89.52 70.2163 89.52 70.8879C89.52 72.5191 88.1047 74.8219 85.2742 77.7963C83.0194 80.1471 81.1723 81.7542 79.7331 82.6178C79.877 84.7287 80.8845 85.7841 82.7555 85.7841C84.5306 85.7841 87.505 84.5847 91.6788 82.186C92.0146 81.9941 92.9502 81.4184 94.4853 80.4589C94.6293 80.315 94.7732 80.243 94.9171 80.243C95.061 80.243 95.133 80.339 95.133 80.5309ZM87.2891 72.2552C87.2891 71.6795 87.1212 71.3917 86.7854 71.3917C85.586 71.3917 84.1228 72.591 82.3957 74.9898C80.6686 77.3885 79.7811 79.5474 79.7331 81.4664C80.6446 81.1785 82.0839 79.9312 84.0508 77.7243C86.2097 75.3256 87.2891 73.5026 87.2891 72.2552ZM110.632 80.5309C110.632 80.7228 110.272 81.1066 109.552 81.6823C107.633 82.9296 105.738 84.177 103.867 85.4243C101.133 87.0554 98.902 87.871 97.1749 87.871C96.1675 87.871 95.2799 87.5112 94.5123 86.7916C93.7447 86.072 93.3609 85.2564 93.3609 84.3449C93.3609 81.1785 94.8961 78.2761 97.9665 75.6374C100.701 73.2867 103.244 72.1113 105.595 72.1113C107.082 72.1113 107.825 72.711 107.825 73.9104C107.825 74.582 106.842 75.9013 104.875 77.8683C104.683 78.0602 104.467 78.1561 104.227 78.1561C103.843 78.1561 103.652 77.9402 103.652 77.5085C103.652 77.3166 103.723 77.1726 103.867 77.0767C104.011 76.9328 104.299 76.405 104.731 75.4935C105.163 74.534 105.379 73.8144 105.379 73.3347C105.379 73.1907 105.211 73.1188 104.875 73.1188C103.676 73.1188 101.924 74.1023 99.6216 76.0692C96.8391 78.42 95.4478 80.8427 95.4478 83.3374C95.4478 85.1604 96.2394 86.072 97.8226 86.072C100.269 86.072 103.987 84.4168 108.977 81.1066C109.217 80.9147 109.552 80.6988 109.984 80.4589C110.128 80.315 110.272 80.243 110.416 80.243C110.56 80.243 110.632 80.339 110.632 80.5309ZM154.014 80.5309C154.014 80.8187 153.654 81.2025 152.934 81.6823C149.528 83.9851 147.633 85.2564 147.249 85.4963C145.091 86.7916 143.291 87.4392 141.852 87.4392C141.037 87.4392 140.341 87.1514 139.765 86.5757C139.238 86 138.974 85.3044 138.974 84.4888C138.974 82.0901 140.509 78.6599 143.579 74.1982C143.819 73.8624 143.939 73.6465 143.939 73.5505C143.939 73.5026 143.915 73.4786 143.867 73.4786C143.675 73.4786 143.339 73.6465 142.86 73.9823C140.173 75.9973 137.199 78.2281 133.936 80.6748C132.545 81.8742 130.506 83.5533 127.82 85.7122C127.436 86 126.908 86.2639 126.236 86.5037C125.901 86.5037 125.733 86.2639 125.733 85.7841C125.733 84.8246 126.524 83.2894 128.107 81.1785C129.739 79.0197 130.554 77.5085 130.554 76.6449C130.554 75.8293 130.17 75.4216 129.403 75.4216C128.251 75.4216 125.949 76.9807 122.494 80.0991C120.144 82.21 118.081 84.2489 116.306 86.2159C115.634 86.9355 115.106 87.2953 114.722 87.2953C114.099 87.2953 113.787 86.9595 113.787 86.2878C113.787 86.0959 113.955 85.6162 114.291 84.8486C115.442 83.2654 116.569 81.6823 117.673 80.0991C119.352 77.7004 120.192 75.9973 120.192 74.9898C120.192 74.558 120.048 74.3421 119.76 74.3421C119.616 74.3421 119.328 74.4381 118.896 74.63C116.45 76.453 112.971 79.0437 108.462 82.4019H107.958C107.622 82.4019 107.454 82.3539 107.454 82.258C107.454 82.114 107.718 81.8742 108.246 81.5383C111.604 78.8997 115.322 76.0452 119.4 72.9748C119.976 72.4951 120.719 72.2552 121.631 72.2552C122.59 72.2552 123.07 72.687 123.07 73.5505C123.07 73.7424 123.022 74.0303 122.926 74.4141C121.967 76.0932 120.743 78.2281 119.256 80.8187C119.064 81.1545 118.968 81.3704 118.968 81.4664C118.968 81.5144 119.016 81.5383 119.112 81.5383L119.328 81.4664C121.103 79.9312 122.878 78.396 124.653 76.8608C127.388 74.558 129.355 73.4066 130.554 73.4066C132.137 73.4066 132.929 73.9104 132.929 74.9178C132.929 75.7814 132.449 77.1007 131.49 78.8757C130.578 80.6028 130.122 81.5383 130.122 81.6823C130.122 81.8262 130.17 81.8982 130.266 81.8982C130.458 81.8982 130.794 81.7302 131.274 81.3944L146.242 70.0964C146.722 69.7126 147.225 69.5207 147.753 69.5207C148.089 69.5207 148.329 69.5926 148.473 69.7365C148.617 69.8325 148.689 70.0244 148.689 70.3122C148.689 70.6481 148.593 70.9359 148.401 71.1758C147.057 73.0948 145.69 75.0378 144.299 77.0047C142.668 79.4994 141.852 81.6583 141.852 83.4813C141.852 84.6327 142.476 85.1844 143.723 85.1365C145.21 85.0885 146.89 84.4888 148.761 83.3374C150.296 82.3779 151.831 81.4184 153.366 80.4589C153.51 80.315 153.654 80.243 153.798 80.243C153.942 80.243 154.014 80.339 154.014 80.5309ZM173.553 80.5309C173.553 80.7228 173.313 81.0106 172.833 81.3944C170.722 83.1695 168.587 84.057 166.428 84.057C165.085 84.057 163.934 83.6972 162.974 82.9776C160.767 85.8561 158.369 87.2953 155.778 87.2953C153.859 87.2953 152.9 86.0959 152.9 83.6972C152.9 80.5788 154.435 77.4365 157.505 74.2702C160.096 71.6315 161.991 70.3122 163.19 70.3122C163.958 70.3122 164.342 70.5521 164.342 71.0319C164.342 71.1758 164.198 71.3677 163.91 71.6076C162.758 71.8474 161.199 73.0708 159.232 75.2776C156.833 77.9642 155.634 80.5549 155.634 83.0496C155.634 84.6807 156.21 85.4963 157.361 85.4963C159.04 85.4963 160.743 84.5128 162.471 82.5458C161.559 81.5383 161.103 80.291 161.103 78.8038C161.103 77.0767 161.535 75.5895 162.399 74.3421C163.166 73.2867 163.982 72.759 164.845 72.759C165.709 72.759 166.213 73.3586 166.356 74.558C166.356 76.6689 165.613 78.9477 164.126 81.3944C164.941 82.3059 166.045 82.7617 167.436 82.7617C169.307 82.7617 171.13 81.9941 172.905 80.4589C173.049 80.315 173.193 80.243 173.337 80.243C173.481 80.243 173.553 80.339 173.553 80.5309ZM165.637 74.9898C165.637 74.51 165.469 74.2702 165.133 74.2702C164.701 74.2702 164.246 74.654 163.766 75.4216C163.286 76.1892 163.046 77.1726 163.046 78.372C163.046 79.3795 163.262 80.219 163.694 80.8907C164.989 78.8757 165.637 76.9088 165.637 74.9898Z" fill="#989898"></path></svg> 