<?xml version="1.0" encoding="UTF-8"?> <svg xmlns="http://www.w3.org/2000/svg" width="417" height="56" viewBox="0 0 417 56" fill="none"><g clip-path="url(#clip0_3500_27)"><path d="M417 0H0.736315H0V36.3249L0.245438 36.8158L0.981754 35.834L1.96351 37.0612L2.45438 38.2884L3.43614 37.3067C4.33608 37.3885 6.08687 37.5521 5.89052 37.5521C5.69417 37.5521 5.80871 38.3702 5.89052 38.7793L8.34491 38.5338L9.5721 39.761L10.7993 38.5338L13.0082 40.4974L14.7263 40.9882L16.1989 39.2702V40.7428L17.917 39.761L18.1624 40.4974H19.6351V41.7245L20.6168 40.7428L22.5803 41.4791L24.053 42.4609L24.5438 41.4791L25.5256 40.4974L26.5074 41.4791L26.9982 40.7428L28.2254 40.4974L29.2072 41.2337L30.6798 40.0065L31.6616 40.2519L32.6433 39.2702L35.3431 39.0247L36.3249 38.043C37.143 38.1248 38.8284 38.2393 39.0247 38.043C39.2211 37.8466 39.1065 37.143 39.0247 36.8158H41.4791L42.7063 35.3431L43.9335 35.834V36.8158C44.4244 36.9794 45.4552 37.2576 45.6516 37.0612C45.8479 36.8649 46.3879 36.4885 46.6333 36.3249L47.3696 37.0612L49.824 37.3067L51.0512 36.8158L51.2966 37.7975H52.7693L53.0147 38.5338L54.7328 38.043L54.9782 38.5338L55.7145 39.0247L56.4509 38.5338L57.1872 39.2702L57.4326 38.7793L57.9235 38.043L58.4144 38.2884L58.6598 38.043V37.3067L60.1324 36.8158L61.3596 35.834L62.8323 36.5703L65.2866 36.3249L67.0047 35.834H68.7228C68.9191 35.834 69.4591 35.1795 69.7045 34.8523L70.9317 34.6068L70.4408 35.834H72.1589L73.1407 36.0795L75.3496 35.0977L76.5768 34.6068L78.7858 35.3431L80.5038 36.5703L81.4856 35.3431C82.631 35.7522 84.9708 36.6194 85.1672 36.8158C85.3635 37.0121 86.0671 37.3885 86.3943 37.5521L88.1124 36.5703L89.3396 37.0612C89.5032 37.0612 89.9287 37.0121 90.3214 36.8158C90.7141 36.6194 91.1395 37.0612 91.3031 37.3067L93.0212 37.7975C93.103 37.5521 93.3157 37.0121 93.5121 36.8158C93.7084 36.6194 94.412 36.734 94.7393 36.8158V37.5521H95.721L97.4391 37.0612L97.6845 38.043C98.0118 37.7975 98.7645 37.2576 99.1572 37.0612C99.5499 36.8649 100.139 36.9794 100.384 37.0612L101.366 37.7975L102.839 37.0612L105.539 37.5521L106.52 36.5703L107.993 35.834L108.238 35.3431L108.729 34.8523L109.22 35.0977L109.466 34.6068L110.202 34.3614L110.447 34.8523L110.938 34.6068H111.429H112.411C112.607 34.6068 112.656 34.9341 112.656 35.0977L112.902 34.6068L113.883 34.3614L114.129 34.8523L114.865 34.6068L115.111 35.0977H115.847L116.092 34.6068L116.338 34.8523C116.42 34.9341 116.583 35.1468 116.583 35.3431C116.583 35.5395 116.911 35.425 117.074 35.3431V35.0977H117.565H117.81L118.301 34.6068C118.792 34.3614 118.547 34.3614 118.301 34.3614C118.056 34.3614 118.792 33.8705 118.547 33.8705H119.774C120.019 33.8705 119.283 33.3796 118.792 33.3796C118.301 33.3796 120.019 33.3796 119.774 33.1342C119.283 32.8888 120.51 33.1342 121.001 33.1342C121.394 33.1342 121.165 32.4797 121.001 32.1524H121.983L122.965 31.1707L124.192 31.6616L124.683 30.6798C124.928 30.8434 125.517 31.1707 125.91 31.1707C126.401 31.1707 126.646 30.4344 126.892 30.4344C127.088 30.4344 127.628 30.1071 127.873 29.9435L128.364 31.1707L129.837 30.6798L131.8 30.1889L133.273 29.9435L134.255 30.1889L135.237 29.2072L137.2 28.2254C137.691 28.5527 138.771 29.2072 139.164 29.2072H140.145C140.391 29.2072 140.882 29.9435 141.373 29.9435C141.765 29.9435 142.682 29.6162 143.091 29.4526L144.563 30.1889L146.281 29.4526L147.754 30.4344L148.981 29.9435L150.454 30.4344L151.436 29.6981L151.926 30.6798L152.663 29.4526L154.135 30.1889L154.872 29.4526C155.199 29.5344 155.853 29.7471 155.853 29.9435C155.853 30.1398 156.672 30.3526 157.081 30.4344H158.799C159.191 30.4344 158.962 31.0889 158.799 31.4161L160.026 31.6616L161.499 32.3979L161.989 33.3796L164.198 33.8705L164.444 32.6433H167.144L168.371 33.3796L170.089 33.6251L169.598 32.3979L171.562 32.6433L172.298 31.907L174.261 32.1524L174.998 31.4161L176.225 31.6616L177.452 31.907L177.207 31.4161L177.943 30.6798L178.679 30.9253V30.4344L179.906 29.6981L180.397 30.1889C180.643 30.3526 181.183 30.6798 181.379 30.6798C181.575 30.6798 181.624 30.3526 181.624 30.1889L182.361 29.9435L183.097 30.6798L183.833 30.1889L184.57 30.9253L184.815 30.1889L185.551 29.9435L186.042 30.4344L186.288 30.6798L186.779 30.4344L187.024 29.9435C187.351 29.9435 188.055 29.8944 188.251 29.6981C188.497 29.4526 188.497 29.2072 188.497 28.9617C188.497 28.7654 188.66 28.7163 188.742 28.7163L189.724 29.2072H190.46L191.197 28.7163C191.442 28.8799 191.982 29.3054 192.178 29.6981C192.424 30.1889 192.669 30.6798 193.896 30.1889C195.124 29.6981 194.878 30.1889 195.614 30.6798C196.351 31.1707 197.333 30.1889 198.314 29.2072C199.051 29.2072 199.787 29.2072 200.523 28.4709C201.26 27.7346 200.769 27.98 201.505 27.98H202.978H204.696C205.677 27.98 205.677 28.4709 205.677 28.7163V29.2072H206.905C207.396 29.2072 207.396 29.4526 208.377 30.1889C209.359 30.9253 209.359 30.1889 210.095 30.6798C210.684 31.0725 210.995 30.5162 211.077 30.1889C210.832 30.0253 210.341 29.5999 210.341 29.2072C210.341 28.7163 210.832 29.2072 211.568 28.7163C212.304 28.2254 212.55 29.2072 212.795 29.4526L214.022 30.6798C214.513 31.1707 215.25 30.1889 215.74 30.1889C216.231 30.1889 215.74 29.6981 215.74 29.2072V28.7163C216.231 28.8799 217.311 29.2072 217.704 29.2072C218.097 29.2072 218.358 29.3708 218.44 29.4526C218.604 29.5344 218.98 29.6981 219.177 29.6981H219.667V28.7163V28.4709H221.14L222.367 28.7163L223.349 29.2072L224.576 28.4709L225.803 28.7163V29.4526L228.012 30.1889C228.421 30.3526 229.289 30.6798 229.485 30.6798C229.681 30.6798 230.549 30.3526 230.958 30.1889L232.185 29.2072L235.376 28.7163C235.785 28.9617 236.75 29.4526 237.339 29.4526C237.928 29.4526 238.403 28.7981 238.566 28.4709H240.284L240.775 27.7346L241.511 28.4709H242.739L242.002 29.6981H244.702L245.684 28.4709C246.093 28.4709 247.058 28.6181 247.647 29.2072C248.384 29.9435 248.875 30.1889 248.875 30.6798C248.875 31.0725 249.856 31.1707 250.347 31.1707V29.2072C250.511 29.0436 250.936 28.8145 251.329 29.2072C251.82 29.6981 252.065 29.4526 252.065 29.6981C252.065 29.9435 252.556 30.1889 253.047 30.6798C253.44 31.0725 253.702 30.0253 253.783 29.4526V28.4709C254.683 28.7163 256.581 29.2563 256.974 29.4526C257.367 29.649 258.938 30.6798 259.674 31.1707L262.619 31.6616L267.528 29.2072L274.4 31.907L276.364 30.1889L278.082 31.907L281.272 33.6251L283.972 34.6068H288.39L291.826 35.5886L294.526 34.3614L298.208 33.6251L301.889 34.3614L304.098 33.6251L307.289 33.3796L309.989 32.3979L311.461 31.907L314.161 33.6251L315.388 35.0977L317.843 35.3431L319.07 36.5703L321.524 35.834L322.752 33.8705L325.697 32.6433L327.66 32.3979L330.606 32.8888L332.078 33.8705L335.024 34.6068L337.478 33.8705L339.932 34.6068L340.914 33.1342L343.123 31.4161H345.087L348.523 27.7346L350.486 28.4709L352.45 27.4891L352.695 28.9617L355.64 29.6981L357.849 29.4526L360.304 31.1707L362.513 32.1524L365.212 31.1707L366.194 32.1524L367.176 31.1707C368.321 31.6616 370.661 32.6924 370.858 32.8888C371.054 33.0851 372.085 33.7887 372.576 34.116L375.03 32.8888L376.994 32.6433L378.221 31.907L379.448 31.4161C379.939 31.7434 380.97 32.3979 381.166 32.3979C381.362 32.3979 383.048 32.2343 383.866 32.1524L386.075 33.1342H388.775C388.938 33.0524 389.364 32.7415 389.756 32.1524C390.247 31.4161 391.229 31.907 391.72 32.1524C392.211 32.3979 393.192 32.8888 393.438 32.8888C393.634 32.8888 394.665 33.8705 395.156 34.3614H397.365L399.083 35.5886L400.556 34.8523L401.783 35.3431L403.01 36.8158L403.255 36.0795L404.483 36.3249L405.219 37.0612V37.3067L406.201 37.7975L406.937 37.5521L407.919 37.0612H408.901H409.882L410.864 37.7975V38.5338H412.337L414.791 39.0247L417 38.5338V0Z" fill="#151515"></path><path d="M0.736315 0H417V38.5338L414.791 39.0247L412.337 38.5338H410.864V37.7975L409.882 37.0612H408.901H407.919L406.937 37.5521L406.201 37.7975L405.219 37.3067V37.0612L404.483 36.3249L403.255 36.0795L403.01 36.8158L401.783 35.3431L400.556 34.8523L399.083 35.5886L397.365 34.3614H395.156C394.665 33.8705 393.634 32.8888 393.438 32.8888C393.192 32.8888 392.211 32.3979 391.72 32.1524C391.229 31.907 390.247 31.4161 389.756 32.1524C389.364 32.7415 388.938 33.0524 388.775 33.1342H386.075L383.866 32.1524C383.048 32.2343 381.362 32.3979 381.166 32.3979C380.97 32.3979 379.939 31.7434 379.448 31.4161L378.221 31.907L376.994 32.6433L375.03 32.8888L372.576 34.116C372.085 33.7887 371.054 33.0851 370.858 32.8888C370.661 32.6924 368.321 31.6616 367.176 31.1707L366.194 32.1524L365.212 31.1707L362.513 32.1524L360.304 31.1707L357.849 29.4526L355.64 29.6981L352.695 28.9617L352.45 27.4891L350.486 28.4709L348.523 27.7346L345.087 31.4161H343.123L340.914 33.1342L339.932 34.6068L337.478 33.8705L335.024 34.6068L332.078 33.8705L330.606 32.8888L327.66 32.3979L325.697 32.6433L322.752 33.8705L321.524 35.834L319.07 36.5703L317.843 35.3431L315.388 35.0977L314.161 33.6251L311.461 31.907L309.989 32.3979L307.289 33.3796L304.098 33.6251L301.889 34.3614L298.208 33.6251L294.526 34.3614L291.826 35.5886L288.39 34.6068H283.972L281.272 33.6251L278.082 31.907L276.364 30.1889L274.4 31.907L267.528 29.2072L262.619 31.6616L259.674 31.1707C258.938 30.6798 257.367 29.649 256.974 29.4526C256.581 29.2563 254.683 28.7163 253.783 28.4709V29.4526C253.702 30.0253 253.44 31.0725 253.047 30.6798C252.556 30.1889 252.065 29.9435 252.065 29.6981C252.065 29.4526 251.82 29.6981 251.329 29.2072C250.936 28.8145 250.511 29.0436 250.347 29.2072V31.1707C249.856 31.1707 248.875 31.0725 248.875 30.6798C248.875 30.1889 248.384 29.9435 247.647 29.2072C247.058 28.6181 246.093 28.4709 245.684 28.4709L244.702 29.6981H242.002L242.739 28.4709H241.511L240.775 27.7346L240.284 28.4709H238.566C238.403 28.7981 237.928 29.4526 237.339 29.4526C236.75 29.4526 235.785 28.9617 235.376 28.7163L232.185 29.2072L230.958 30.1889C230.549 30.3526 229.681 30.6798 229.485 30.6798C229.289 30.6798 228.421 30.3526 228.012 30.1889L225.803 29.4526V28.7163L224.576 28.4709L223.349 29.2072L222.367 28.7163L221.14 28.4709H219.667C219.667 28.3891 219.667 28.3236 219.667 28.7163C219.667 29.109 219.667 29.5344 219.667 29.6981C219.586 29.6981 219.373 29.6981 219.177 29.6981C218.98 29.6981 218.604 29.5344 218.44 29.4526C218.358 29.3708 218.097 29.2072 217.704 29.2072C217.311 29.2072 216.231 28.8799 215.74 28.7163C215.74 28.7163 215.74 28.8145 215.74 29.2072C215.74 29.6981 216.231 30.1889 215.74 30.1889C215.25 30.1889 214.513 31.1707 214.022 30.6798C213.041 29.6981 213.041 29.6981 212.795 29.4526C212.55 29.2072 212.304 28.2254 211.568 28.7163C210.832 29.2072 210.341 28.7163 210.341 29.2072C210.341 29.5999 210.832 30.0253 211.077 30.1889C210.995 30.5162 210.684 31.0725 210.095 30.6798C209.359 30.1889 209.359 30.9253 208.377 30.1889C207.396 29.4526 207.396 29.2072 206.905 29.2072C206.512 29.2072 205.923 29.2072 205.677 29.2072C205.677 29.1254 205.677 28.9127 205.677 28.7163C205.677 28.4709 205.677 27.98 204.696 27.98C203.714 27.98 203.469 27.98 202.978 27.98C202.487 27.98 202.241 27.98 201.505 27.98C200.769 27.98 201.26 27.7345 200.523 28.4709C199.787 29.2072 199.051 29.2072 198.314 29.2072C197.333 30.1889 196.351 31.1707 195.614 30.6798C194.878 30.1889 195.124 29.6981 193.896 30.1889C192.669 30.6798 192.424 30.1889 192.178 29.6981C191.982 29.3054 191.442 28.8799 191.197 28.7163L190.46 29.2072H189.724L188.742 28.7163C188.66 28.7163 188.497 28.7654 188.497 28.9617C188.497 29.2072 188.497 29.4526 188.251 29.6981C188.055 29.8944 187.351 29.9435 187.024 29.9435L186.779 30.4344L186.288 30.6798L186.042 30.4344L185.551 29.9435L184.815 30.1889L184.57 30.9253L183.833 30.1889L183.097 30.6798L182.361 29.9435L181.624 30.1889C181.624 30.3526 181.575 30.6798 181.379 30.6798C181.183 30.6798 180.643 30.3526 180.397 30.1889L179.906 29.6981L178.679 30.4344V30.9253L177.943 30.6798L177.207 31.4161L177.452 31.907L176.225 31.6616L174.998 31.4161L174.261 32.1524L172.298 31.907L171.562 32.6433L169.598 32.3979L170.089 33.6251L168.371 33.3796L167.144 32.6433H164.444L164.198 33.8705L161.989 33.3796L161.499 32.3979L160.026 31.6616L158.799 31.4161C158.962 31.0889 159.191 30.4344 158.799 30.4344C158.406 30.4344 157.49 30.4344 157.081 30.4344C156.672 30.3526 155.853 30.1398 155.853 29.9435C155.853 29.7471 155.199 29.5344 154.872 29.4526L154.135 30.1889L152.663 29.4526L151.926 30.6798L151.436 29.6981L150.454 30.4344L148.981 29.9435L147.754 30.4344L146.281 29.4526L144.563 30.1889L143.091 29.4526C142.682 29.6162 141.765 29.9435 141.373 29.9435C140.882 29.9435 140.391 29.2072 140.145 29.2072C139.9 29.2072 139.654 29.2072 139.164 29.2072C138.771 29.2072 137.691 28.5527 137.2 28.2254L135.237 29.2072L134.255 30.1889L133.273 29.9435L131.8 30.1889L129.837 30.6798L128.364 31.1707L127.873 29.9435C127.628 30.1071 127.088 30.4344 126.892 30.4344C126.646 30.4344 126.401 31.1707 125.91 31.1707C125.517 31.1707 124.928 30.8434 124.683 30.6798L124.192 31.6616L122.965 31.1707L121.983 32.1524H121.001C121.165 32.4797 121.394 33.1342 121.001 33.1342C120.51 33.1342 119.283 32.8888 119.774 33.1342C120.019 33.3796 118.301 33.3796 118.792 33.3796C119.283 33.3796 120.019 33.8705 119.774 33.8705C119.529 33.8705 118.301 33.8705 118.547 33.8705C118.792 33.8705 118.056 34.3614 118.301 34.3614C118.547 34.3614 118.792 34.3614 118.301 34.6068L117.81 35.0977H118.056H117.565H117.074V35.3431C116.911 35.425 116.583 35.5395 116.583 35.3431C116.583 35.1468 116.42 34.9341 116.338 34.8523L116.092 34.6068L115.847 35.0977H115.111L114.865 34.6068L114.129 34.8523L113.883 34.3614L112.902 34.6068L112.656 35.0977C112.656 34.9341 112.607 34.6068 112.411 34.6068C112.214 34.6068 111.675 34.6068 111.429 34.6068H110.938L110.447 34.8523L110.202 34.3614L109.466 34.6068L109.22 35.0977L108.729 34.8523L108.238 35.3431L107.993 35.834L106.52 36.5703L105.539 37.5521L102.839 37.0612L101.366 37.7975L100.384 37.0612C100.139 36.9794 99.5499 36.8649 99.1572 37.0612C98.7644 37.2576 98.0118 37.7975 97.6845 38.043L97.4391 37.0612L95.721 37.5521H94.7393V36.8158C94.412 36.734 93.7084 36.6194 93.5121 36.8158C93.3157 37.0121 93.103 37.5521 93.0212 37.7975L91.3031 37.3067C91.1395 37.0612 90.7141 36.6194 90.3214 36.8158C89.9287 37.0121 89.5032 37.0612 89.3396 37.0612L88.1124 36.5703L86.3943 37.5521C86.0671 37.3885 85.3635 37.0121 85.1672 36.8158C84.9708 36.6194 82.631 35.7522 81.4856 35.3431L80.5038 36.5703L78.7858 35.3431L76.5768 34.6068L75.3496 35.0977L73.1407 36.0795L72.1589 35.834H70.4408L70.9317 34.6068L69.7045 34.8523C69.4591 35.1795 68.9191 35.834 68.7228 35.834C68.5264 35.834 67.4956 35.834 67.0047 35.834L65.2866 36.3249L62.8323 36.5703L61.3596 35.834L60.1324 36.8158L58.6598 37.3067V38.043L58.4144 38.2884L57.9235 38.043L57.4326 38.7793L57.1872 39.2702L56.4509 38.5338L55.7145 39.0247L54.9782 38.5338L54.7328 38.043L53.0147 38.5338L52.7693 37.7975H51.2966L51.0512 36.8158L49.824 37.3067L47.3696 37.0612L46.6333 36.3249C46.3879 36.4885 45.8479 36.8649 45.6516 37.0612C45.4552 37.2576 44.4244 36.9794 43.9335 36.8158V35.834L42.7063 35.3431L41.4791 36.8158H39.0247C39.1065 37.143 39.2211 37.8466 39.0247 38.043C38.8284 38.2393 37.143 38.1248 36.3249 38.043L35.3431 39.0247L32.6433 39.2702L31.6616 40.2519L30.6798 40.0065L29.2072 41.2337L28.2254 40.4974L26.9982 40.7428L26.5074 41.4791L25.5256 40.4974L24.5438 41.4791L24.053 42.4609L22.5803 41.4791L20.6168 40.7428L19.6351 41.7245V40.4974H18.1624L17.917 39.761L16.1989 40.7428V39.2702L14.7263 40.9882L13.0082 40.4974L10.7993 38.5338L9.5721 39.761L8.34491 38.5338L5.89052 38.7793C5.80871 38.3702 5.69417 37.5521 5.89052 37.5521C6.08687 37.5521 4.33608 37.3885 3.43614 37.3067L2.45438 38.2884L1.96351 37.0612L0.981754 35.834L0.245438 36.8158L0 36.3249V0H0.736315Z" stroke="#151515" stroke-width="0.490877"></path></g><defs><clipPath id="clip0_3500_27"><rect width="417" height="56" fill="white"></rect></clipPath></defs></svg> 