<?xml version="1.0" encoding="UTF-8"?> <svg xmlns="http://www.w3.org/2000/svg" width="549" height="466" viewBox="0 0 549 466" fill="none"><path d="M34.9911 13.1775C35.0826 13.086 35.2504 13.0402 35.4944 13.0402C35.9519 13.0402 36.1806 13.147 36.1806 13.3605V38.2942C36.1806 39.2092 36.2721 39.8955 36.4551 40.353C36.6686 40.78 37.0499 41.0697 37.5989 41.2222C38.1479 41.3747 39.0019 41.451 40.1609 41.451C40.2524 41.451 40.2981 41.5425 40.2981 41.7255C40.2981 41.9085 40.2524 42 40.1609 42C39.2154 42 38.4529 41.9847 37.8734 41.9542L34.7166 41.9085L31.3769 41.9542C30.8584 41.9847 30.1416 42 29.2266 42C29.1351 42 29.0894 41.9085 29.0894 41.7255C29.0894 41.5425 29.1351 41.451 29.2266 41.451C30.4161 41.451 31.2854 41.3747 31.8344 41.2222C32.3834 41.0697 32.7494 40.78 32.9324 40.353C33.1154 39.926 33.2069 39.2397 33.2069 38.2942V15.9225L34.0761 16.1055L13.5344 42.4118C13.4429 42.5338 13.2599 42.5948 12.9854 42.5948C12.5279 42.5948 12.2991 42.488 12.2991 42.2745V17.112C12.2991 16.197 12.1924 15.526 11.9789 15.099C11.7959 14.672 11.4146 14.3822 10.8351 14.2297C10.2861 14.0467 9.43213 13.9552 8.27313 13.9552C8.21212 13.9552 8.18162 13.8637 8.18162 13.6807C8.18162 13.4977 8.21212 13.4062 8.27313 13.4062L10.6521 13.452C11.9331 13.513 12.9701 13.5435 13.7631 13.5435C14.6476 13.5435 15.7609 13.513 17.1029 13.452L19.2531 13.4062C19.3141 13.4062 19.3446 13.4977 19.3446 13.6807C19.3446 13.8637 19.3141 13.9552 19.2531 13.9552C18.0636 13.9552 17.1944 14.0467 16.6454 14.2297C16.0964 14.3822 15.7151 14.672 15.5016 15.099C15.3186 15.526 15.2271 16.197 15.2271 17.112V39.7582L14.4036 39.5752L34.9911 13.1775ZM48.9245 26.628H58.9438V27.5887H48.9245V26.628ZM47.4605 17.112C47.4605 16.197 47.3538 15.526 47.1403 15.099C46.9573 14.672 46.5913 14.3822 46.0423 14.2297C45.4933 14.0467 44.6393 13.9552 43.4803 13.9552C43.4193 13.9552 43.3888 13.8637 43.3888 13.6807C43.3888 13.4977 43.4193 13.4062 43.4803 13.4062L45.8135 13.452C47.0945 13.513 48.1163 13.5435 48.8788 13.5435C49.7633 13.5435 50.8765 13.513 52.2185 13.452L54.4145 13.4062C54.4755 13.4062 54.506 13.4977 54.506 13.6807C54.506 13.8637 54.4755 13.9552 54.4145 13.9552C53.2555 13.9552 52.3863 14.0467 51.8068 14.2297C51.2578 14.4127 50.8765 14.733 50.663 15.1905C50.48 15.6175 50.3885 16.2885 50.3885 17.2035V38.2942C50.3885 39.2092 50.48 39.8955 50.663 40.353C50.8765 40.78 51.2578 41.0697 51.8068 41.2222C52.3558 41.3747 53.225 41.451 54.4145 41.451C54.4755 41.451 54.506 41.5425 54.506 41.7255C54.506 41.9085 54.4755 42 54.4145 42C53.469 42 52.7218 41.9847 52.1728 41.9542L48.8788 41.9085L45.722 41.9542C45.173 41.9847 44.4105 42 43.4345 42C43.3735 42 43.343 41.9085 43.343 41.7255C43.343 41.5425 43.3735 41.451 43.4345 41.451C44.5935 41.451 45.4475 41.3747 45.9965 41.2222C46.576 41.0697 46.9573 40.78 47.1403 40.353C47.3538 39.8955 47.4605 39.2092 47.4605 38.2942V17.112ZM71.4335 42.549C68.6885 42.549 66.2485 41.8932 64.1135 40.5817C62.009 39.2397 60.3773 37.4402 59.2183 35.1832C58.0593 32.8957 57.4798 30.41 57.4798 27.726C57.4798 24.5845 58.2423 21.9005 59.7673 19.674C61.3228 17.417 63.29 15.7242 65.669 14.5957C68.0785 13.4672 70.549 12.903 73.0805 12.903C75.856 12.903 78.296 13.5892 80.4005 14.9617C82.505 16.3037 84.1215 18.088 85.25 20.3145C86.409 22.541 86.9885 24.9047 86.9885 27.4057C86.9885 30.1812 86.2718 32.728 84.8383 35.046C83.4353 37.364 81.5443 39.194 79.1653 40.536C76.7863 41.878 74.209 42.549 71.4335 42.549ZM72.989 41.5882C74.941 41.5882 76.6948 41.085 78.2503 40.0785C79.8363 39.072 81.0868 37.5927 82.0018 35.6407C82.9168 33.6887 83.3743 31.3707 83.3743 28.6867C83.3743 25.8197 82.8558 23.273 81.8188 21.0465C80.8123 18.82 79.3788 17.0815 77.5183 15.831C75.6578 14.5805 73.4923 13.9552 71.0218 13.9552C67.7888 13.9552 65.2878 15.038 63.5188 17.2035C61.7498 19.369 60.8653 22.3427 60.8653 26.1247C60.8653 28.9917 61.3685 31.6147 62.375 33.9937C63.412 36.3422 64.8455 38.2027 66.6755 39.5752C68.536 40.9172 70.6405 41.5882 72.989 41.5882ZM115.36 17.2035C115.36 16.2885 115.253 15.6175 115.039 15.1905C114.856 14.733 114.49 14.4127 113.941 14.2297C113.392 14.0467 112.523 13.9552 111.334 13.9552C111.242 13.9552 111.196 13.8637 111.196 13.6807C111.196 13.4977 111.242 13.4062 111.334 13.4062L113.53 13.452C114.872 13.513 115.985 13.5435 116.869 13.5435C117.693 13.5435 118.745 13.513 120.026 13.452L122.268 13.4062C122.359 13.4062 122.405 13.4977 122.405 13.6807C122.405 13.8637 122.359 13.9552 122.268 13.9552C121.109 13.9552 120.255 14.0467 119.706 14.2297C119.157 14.3822 118.776 14.672 118.562 15.099C118.379 15.526 118.288 16.197 118.288 17.112V38.2942C118.288 39.2092 118.379 39.8955 118.562 40.353C118.776 40.78 119.157 41.0697 119.706 41.2222C120.255 41.3747 121.109 41.451 122.268 41.451C122.359 41.451 122.405 41.5425 122.405 41.7255C122.405 41.9085 122.359 42 122.268 42C121.322 42 120.575 41.9847 120.026 41.9542L116.869 41.9085L113.53 41.9542C112.981 41.9847 112.249 42 111.334 42C111.242 42 111.196 41.9085 111.196 41.7255C111.196 41.5425 111.242 41.451 111.334 41.451C112.523 41.451 113.392 41.3747 113.941 41.2222C114.49 41.0697 114.856 40.78 115.039 40.353C115.253 39.8955 115.36 39.2092 115.36 38.2942V17.2035ZM96.1903 26.628H116.641V27.5887H96.1903V26.628ZM94.8636 17.112C94.8636 16.197 94.7568 15.526 94.5433 15.099C94.3603 14.672 93.9943 14.3822 93.4453 14.2297C92.8963 14.0467 92.0423 13.9552 90.8833 13.9552C90.8223 13.9552 90.7918 13.8637 90.7918 13.6807C90.7918 13.4977 90.8223 13.4062 90.8833 13.4062L93.2166 13.452C94.4976 13.513 95.5193 13.5435 96.2818 13.5435C97.1663 13.5435 98.2796 13.513 99.6216 13.452L101.818 13.4062C101.879 13.4062 101.909 13.4977 101.909 13.6807C101.909 13.8637 101.879 13.9552 101.818 13.9552C100.659 13.9552 99.7893 14.0467 99.2098 14.2297C98.6608 14.4127 98.2796 14.733 98.0661 15.1905C97.8831 15.6175 97.7916 16.2885 97.7916 17.2035V38.2942C97.7916 39.2092 97.8831 39.8955 98.0661 40.353C98.2796 40.78 98.6608 41.0697 99.2098 41.2222C99.7588 41.3747 100.628 41.451 101.818 41.451C101.879 41.451 101.909 41.5425 101.909 41.7255C101.909 41.9085 101.879 42 101.818 42C100.872 42 100.125 41.9847 99.5758 41.9542L96.2818 41.9085L93.1251 41.9542C92.5761 41.9847 91.8136 42 90.8376 42C90.7766 42 90.7461 41.9085 90.7461 41.7255C90.7461 41.5425 90.7766 41.451 90.8376 41.451C91.9966 41.451 92.8506 41.3747 93.3996 41.2222C93.9791 41.0697 94.3603 40.78 94.5433 40.353C94.7568 39.8955 94.8636 39.2092 94.8636 38.2942V17.112ZM137.95 42.183C137.157 42.183 136.212 42.1373 135.114 42.0458C134.687 42.0153 134.138 41.9847 133.467 41.9542C132.826 41.9237 132.11 41.9085 131.317 41.9085L128.297 41.9542C127.718 41.9847 126.925 42 125.918 42C125.857 42 125.827 41.9085 125.827 41.7255C125.827 41.5425 125.857 41.451 125.918 41.451C127.108 41.4205 127.962 41.329 128.48 41.1765C129.029 41.024 129.41 40.7342 129.624 40.3072C129.837 39.8802 129.944 39.2092 129.944 38.2942V17.112C129.944 16.197 129.837 15.526 129.624 15.099C129.441 14.672 129.075 14.3822 128.526 14.2297C128.007 14.0772 127.169 13.9857 126.01 13.9552C125.918 13.9552 125.872 13.8637 125.872 13.6807C125.872 13.4977 125.918 13.4062 126.01 13.4062L128.206 13.452C129.426 13.513 130.463 13.5435 131.317 13.5435C132.201 13.5435 133.314 13.513 134.656 13.452L136.852 13.4062C136.944 13.4062 136.99 13.4977 136.99 13.6807C136.99 13.8637 136.944 13.9552 136.852 13.9552C135.693 13.9857 134.839 14.0772 134.29 14.2297C133.741 14.3822 133.36 14.6872 133.147 15.1447C132.964 15.5717 132.872 16.258 132.872 17.2035V38.2942C132.872 39.3617 133.147 40.1395 133.696 40.6275C134.245 41.1155 135.358 41.3595 137.035 41.3595C139.506 41.3595 141.275 40.8105 142.342 39.7125C143.44 38.584 143.989 36.8302 143.989 34.4512C143.989 31.7062 143.379 29.739 142.159 28.5495C140.939 27.36 139.17 26.7652 136.852 26.7652C135.297 26.7652 133.558 27.0245 131.637 27.543L131.545 26.628C133.894 26.1095 136.044 25.8502 137.996 25.8502C144.127 25.8502 147.192 28.3512 147.192 33.3532C147.192 35.0917 146.795 36.632 146.002 37.974C145.24 39.316 144.157 40.353 142.754 41.085C141.351 41.817 139.75 42.183 137.95 42.183Z" fill="black"></path><path d="M14.5402 99.8096H31.7369V123.123H30.199V101.208H16.0781V123.123H14.5402V99.8096ZM39.562 99.8096V109.701H53.6828V99.8096H55.2208V123.123H53.6828V111.099H39.562V123.123H38.024V99.8096H39.562Z" fill="black"></path><path d="M34.8271 188.35V166.434H31.1921L31.8911 165.036H36.3651V188.35H34.8271Z" fill="black"></path><path d="M37.8331 241.481C40.3147 242.424 41.6429 244.836 41.6429 247.388C41.6429 251.442 38.5671 253.959 34.897 253.959C31.227 253.959 28.1512 251.442 28.1512 247.388C28.1512 244.836 29.4794 242.424 31.961 241.481C28.7803 239.803 28.7104 236.797 28.7104 236.098C28.7104 232.568 31.4018 229.946 34.897 229.946C38.3923 229.946 41.0837 232.568 41.0837 236.098C41.0837 236.797 41.0138 239.803 37.8331 241.481ZM34.897 240.816C37.3787 240.816 39.4759 238.859 39.4759 236.098C39.4759 233.337 37.4486 231.344 34.897 231.344C32.3455 231.344 30.3182 233.337 30.3182 236.098C30.3182 238.859 32.4154 240.816 34.897 240.816ZM34.897 252.561C38.0428 252.561 40.0351 250.254 40.0351 247.388C40.0351 244.312 37.903 242.145 34.897 242.145C31.8911 242.145 29.759 244.312 29.759 247.388C29.759 250.254 31.7513 252.561 34.897 252.561Z" fill="black"></path><path d="M27.881 318.801V296.885H24.2459L24.945 295.487H29.4189V318.801H27.881ZM48.6939 295.487V296.885H40.8645L38.9072 303.177C39.4664 303.037 39.9208 302.967 40.4801 302.967C45.4433 302.967 48.5891 306.393 48.5891 311.041C48.5891 316.074 44.8491 319.185 40.3053 319.185C37.8586 319.185 34.9925 318.242 33.3148 315.34L34.6779 314.781C35.9712 316.704 37.9984 317.787 40.3402 317.787C44.185 317.787 46.9813 314.991 46.9813 311.076C46.9813 307.127 44.2899 304.365 40.4102 304.365C38.9421 304.365 37.7887 304.75 36.7751 305.379L39.781 295.487H48.6939Z" fill="black"></path><path d="M32.8568 384.027H18.4913L27.4392 374.171C28.2431 373.262 29.1518 372.283 29.9907 371.025C30.6548 370.011 31.3539 368.683 31.3539 367.04C31.3539 364.104 29.1518 361.797 25.9362 361.797C24.6779 361.797 23.14 362.112 21.9166 363.51C21.2176 364.279 20.5535 365.607 20.5535 367.32H19.0156C19.0156 365.223 19.8195 363.51 20.868 362.427C21.8817 361.378 23.5245 360.399 26.041 360.399C30.0606 360.399 32.9617 363.265 32.9617 367.04C32.9617 369.033 32.1927 370.571 31.284 371.829C30.7597 372.563 29.8858 373.611 29.2217 374.345L21.7419 382.629H32.8568V384.027ZM50.7086 384.027H36.3431L45.291 374.171C46.0949 373.262 47.0037 372.283 47.8425 371.025C48.5066 370.011 49.2057 368.683 49.2057 367.04C49.2057 364.104 47.0037 361.797 43.788 361.797C42.5297 361.797 40.9918 362.112 39.7684 363.51C39.0694 364.279 38.4053 365.607 38.4053 367.32H36.8674C36.8674 365.223 37.6713 363.51 38.7199 362.427C39.7335 361.378 41.3763 360.399 43.8929 360.399C47.9124 360.399 50.8135 363.265 50.8135 367.04C50.8135 369.033 50.0445 370.571 49.1358 371.829C48.6115 372.563 47.7377 373.611 47.0736 374.345L39.5937 382.629H50.7086V384.027Z" fill="black"></path><path d="M32.2083 449.252H17.8427L26.7906 439.395C27.5945 438.487 28.5033 437.508 29.3422 436.25C30.0063 435.236 30.7053 433.908 30.7053 432.265C30.7053 429.329 28.5033 427.022 25.2877 427.022C24.0294 427.022 22.4914 427.337 21.2681 428.735C20.569 429.504 19.9049 430.832 19.9049 432.545H18.367C18.367 430.447 19.1709 428.735 20.2195 427.651C21.2331 426.603 22.8759 425.624 25.3925 425.624C29.4121 425.624 32.3131 428.49 32.3131 432.265C32.3131 434.257 31.5442 435.795 30.6354 437.053C30.1111 437.787 29.2373 438.836 28.5732 439.57L21.0933 447.854H32.2083V449.252ZM43.5278 449.636L42.3394 448.728L47.5124 441.353C46.4288 441.807 45.3803 441.982 44.3317 441.982C39.7179 441.982 36.2227 438.591 36.2227 433.838C36.2227 429.189 39.648 425.624 44.5414 425.624C49.26 425.624 52.7902 429.084 52.7902 433.873C52.7902 436.389 51.6717 438.067 51.2873 438.626L43.5278 449.636ZM44.5064 427.022C40.6616 427.022 37.8305 429.993 37.8305 433.803C37.8305 437.787 40.6966 440.584 44.5064 440.584C48.3862 440.584 51.1824 437.683 51.1824 433.803C51.1824 429.958 48.3512 427.022 44.5064 427.022Z" fill="black"></path><path d="M101.909 123.123V99.8096H107.012C111.066 99.8096 113.443 102.151 113.443 105.647C113.443 108.163 112.255 109.806 110.717 110.75C113.758 111.239 115.54 113.581 115.54 116.587C115.54 120.676 112.534 123.123 108.305 123.123H101.909ZM103.447 101.208V110.365H107.152C108.34 110.365 109.319 110.226 110.332 109.387C111.276 108.618 111.87 107.429 111.87 105.821C111.87 103.969 111.066 102.816 110.297 102.186C109.144 101.278 107.641 101.208 106.418 101.208H103.447ZM103.447 111.763V121.725H107.361C108.934 121.725 110.857 121.725 112.429 120.327C113.688 119.208 113.932 117.845 113.932 116.762C113.932 114.664 113.198 113.231 111.451 112.428C110.822 112.148 109.668 111.763 107.082 111.763H103.447ZM130.121 101.208H124.074V123.123H122.536V101.208H116.49V99.8096H130.121V101.208Z" fill="black"></path><path d="M121.651 188.35H107.286L116.234 178.493C117.037 177.584 117.946 176.606 118.785 175.347C119.449 174.334 120.148 173.005 120.148 171.363C120.148 168.427 117.946 166.12 114.731 166.12C113.472 166.12 111.934 166.434 110.711 167.832C110.012 168.601 109.348 169.93 109.348 171.642H107.81C107.81 169.545 108.614 167.832 109.662 166.749C110.676 165.7 112.319 164.722 114.835 164.722C118.855 164.722 121.756 167.588 121.756 171.363C121.756 173.355 120.987 174.893 120.078 176.151C119.554 176.885 118.68 177.934 118.016 178.668L110.536 186.952H121.651V188.35Z" fill="black"></path><path d="M113.822 253.959L112.633 253.05L117.806 245.675C116.723 246.129 115.674 246.304 114.626 246.304C110.012 246.304 106.517 242.914 106.517 238.16C106.517 233.511 109.942 229.946 114.835 229.946C119.554 229.946 123.084 233.407 123.084 238.195C123.084 240.712 121.966 242.389 121.581 242.949L113.822 253.959ZM114.8 231.344C110.956 231.344 108.124 234.315 108.124 238.125C108.124 242.11 110.991 244.906 114.8 244.906C118.68 244.906 121.476 242.005 121.476 238.125C121.476 234.28 118.645 231.344 114.8 231.344Z" fill="black"></path><path d="M107.101 318.801V296.885H103.466L104.165 295.487H108.639V318.801H107.101ZM123.304 295.173L124.492 296.082L119.319 303.422C120.403 302.967 121.451 302.792 122.5 302.792C127.114 302.792 130.609 306.183 130.609 310.936C130.609 315.62 127.149 319.185 122.29 319.185C117.572 319.185 114.041 315.76 114.041 310.901C114.041 308.385 115.16 306.707 115.544 306.148L123.304 295.173ZM122.325 317.787C126.17 317.787 129.001 314.816 129.001 310.971C129.001 306.987 126.17 304.191 122.325 304.191C118.445 304.191 115.649 307.092 115.649 310.971C115.649 314.886 118.515 317.787 122.325 317.787Z" fill="black"></path><path d="M112.981 384.027H98.6157L107.564 374.171C108.368 373.262 109.276 372.283 110.115 371.025C110.779 370.011 111.478 368.683 111.478 367.04C111.478 364.104 109.276 361.797 106.061 361.797C104.802 361.797 103.264 362.112 102.041 363.51C101.342 364.279 100.678 365.607 100.678 367.32H99.14C99.14 365.223 99.9439 363.51 100.992 362.427C102.006 361.378 103.649 360.399 106.165 360.399C110.185 360.399 113.086 363.265 113.086 367.04C113.086 369.033 112.317 370.571 111.408 371.829C110.884 372.563 110.01 373.611 109.346 374.345L101.866 382.629H112.981V384.027ZM116.515 378.365H118.053C118.088 379.274 118.367 380.148 118.822 380.847C119.695 382.105 121.408 383.014 122.946 383.014C125.812 383.014 128.189 380.497 128.189 377.596C128.189 375.604 127.21 374.101 125.987 373.332C125.218 372.842 124.134 372.633 123.016 372.633V371.235C124.799 371.235 125.917 370.361 126.162 370.151C127.175 369.312 127.874 367.879 127.874 366.341C127.874 363.86 126.302 361.797 123.4 361.797C122.457 361.797 121.094 361.972 120.045 363.161C119.311 363.964 118.892 365.118 118.857 366.271H117.389C117.424 364.524 118.158 363.056 119.101 362.077C120.499 360.644 122.142 360.399 123.4 360.399C127.245 360.399 129.482 363.056 129.482 366.236C129.482 368.229 128.608 370.745 125.812 371.864C128.329 372.668 129.797 374.905 129.797 377.561C129.797 381.476 126.756 384.412 122.946 384.412C120.849 384.412 118.542 383.363 117.354 381.371C116.899 380.637 116.515 379.623 116.515 378.365Z" fill="black"></path><path d="M98.2704 443.59H99.8083C99.8433 444.498 100.123 445.372 100.577 446.071C101.451 447.33 103.164 448.238 104.702 448.238C107.568 448.238 109.945 445.722 109.945 442.821C109.945 440.828 108.966 439.325 107.743 438.556C106.974 438.067 105.89 437.857 104.772 437.857V436.459C106.554 436.459 107.673 435.585 107.917 435.376C108.931 434.537 109.63 433.104 109.63 431.566C109.63 429.084 108.057 427.022 105.156 427.022C104.212 427.022 102.849 427.197 101.801 428.385C101.067 429.189 100.647 430.343 100.612 431.496H99.1442C99.1792 429.748 99.9132 428.28 100.857 427.302C102.255 425.869 103.898 425.624 105.156 425.624C109.001 425.624 111.238 428.28 111.238 431.461C111.238 433.453 110.364 435.97 107.568 437.088C110.084 437.892 111.552 440.129 111.552 442.786C111.552 446.7 108.512 449.636 104.702 449.636C102.605 449.636 100.298 448.588 99.1093 446.596C98.6549 445.862 98.2704 444.848 98.2704 443.59ZM124.34 425.624C125.843 425.624 127.94 426.183 129.828 428.455C131.645 430.622 132.798 433.768 132.798 437.613C132.798 441.458 131.645 444.603 129.828 446.77C128.15 448.763 126.123 449.636 124.34 449.636C122.557 449.636 120.53 448.763 118.852 446.77C117.035 444.603 115.881 441.458 115.881 437.613C115.881 433.768 117.035 430.622 118.852 428.455C120.74 426.183 122.837 425.624 124.34 425.624ZM124.34 448.238C125.144 448.238 126.961 447.994 128.674 445.862C130.177 444.009 131.191 441.318 131.191 437.613C131.191 433.873 130.177 431.216 128.674 429.364C127.835 428.315 126.402 427.022 124.34 427.022C122.278 427.022 120.845 428.315 120.006 429.364C118.503 431.216 117.489 433.873 117.489 437.613C117.489 441.318 118.503 444.009 120.006 445.862C121.718 447.994 123.536 448.238 124.34 448.238Z" fill="black"></path><path d="M196.442 102.536V104.563C194.45 102.221 191.584 100.893 188.578 100.893C182.601 100.893 178.127 105.682 178.127 111.589C178.127 118.509 183.894 122.109 188.613 122.109C190.954 122.109 194.065 121.166 196.442 118.579V120.606C194.065 122.704 191.199 123.508 188.683 123.508C181.692 123.508 176.519 118.02 176.519 111.519C176.519 104.808 181.902 99.495 188.613 99.495C193.052 99.495 195.743 101.872 196.442 102.536ZM206.01 112.043H203.004V123.123H201.466V99.8096H205.975C209.785 99.8096 212.791 101.907 212.791 105.891C212.791 109.771 210.029 112.043 206.01 112.043ZM203.004 101.208V110.645H206.08C209.121 110.645 211.183 108.862 211.183 105.926C211.183 103.025 209.225 101.208 205.835 101.208H203.004Z" fill="black"></path><path d="M187.713 182.687H189.251C189.286 183.596 189.566 184.47 190.02 185.169C190.894 186.427 192.607 187.336 194.145 187.336C197.011 187.336 199.388 184.819 199.388 181.918C199.388 179.926 198.409 178.423 197.186 177.654C196.417 177.165 195.333 176.955 194.215 176.955V175.557C195.997 175.557 197.116 174.683 197.36 174.473C198.374 173.635 199.073 172.201 199.073 170.664C199.073 168.182 197.5 166.12 194.599 166.12C193.655 166.12 192.292 166.294 191.244 167.483C190.51 168.287 190.09 169.44 190.055 170.594H188.587C188.622 168.846 189.356 167.378 190.3 166.399C191.698 164.966 193.341 164.722 194.599 164.722C198.444 164.722 200.681 167.378 200.681 170.559C200.681 172.551 199.807 175.068 197.011 176.186C199.528 176.99 200.996 179.227 200.996 181.883C200.996 185.798 197.955 188.734 194.145 188.734C192.048 188.734 189.741 187.686 188.552 185.693C188.098 184.959 187.713 183.946 187.713 182.687Z" fill="black"></path><path d="M186.952 253.574V231.659H183.317L184.016 230.261H188.49V253.574H186.952ZM202.246 229.946C203.749 229.946 205.846 230.505 207.733 232.777C209.551 234.944 210.704 238.09 210.704 241.935C210.704 245.78 209.551 248.926 207.733 251.093C206.056 253.085 204.028 253.959 202.246 253.959C200.463 253.959 198.436 253.085 196.758 251.093C194.941 248.926 193.787 245.78 193.787 241.935C193.787 238.09 194.941 234.944 196.758 232.777C198.646 230.505 200.743 229.946 202.246 229.946ZM202.246 252.561C203.05 252.561 204.867 252.316 206.58 250.184C208.083 248.331 209.097 245.64 209.097 241.935C209.097 238.195 208.083 235.539 206.58 233.686C205.741 232.638 204.308 231.344 202.246 231.344C200.184 231.344 198.751 232.638 197.912 233.686C196.409 235.539 195.395 238.195 195.395 241.935C195.395 245.64 196.409 248.331 197.912 250.184C199.624 252.316 201.442 252.561 202.246 252.561Z" fill="black"></path><path d="M187.174 318.801V296.885H183.539L184.238 295.487H188.712V318.801H187.174ZM193.216 318.311L208.316 296.885H194.16V295.487H211.042L194.369 319.185L193.216 318.311Z" fill="black"></path><path d="M192.816 384.027H178.45L187.398 374.171C188.202 373.262 189.111 372.283 189.95 371.025C190.614 370.011 191.313 368.683 191.313 367.04C191.313 364.104 189.111 361.797 185.895 361.797C184.637 361.797 183.099 362.112 181.876 363.51C181.177 364.279 180.512 365.607 180.512 367.32H178.974C178.974 365.223 179.778 363.51 180.827 362.427C181.841 361.378 183.483 360.399 186 360.399C190.02 360.399 192.921 363.265 192.921 367.04C192.921 369.033 192.152 370.571 191.243 371.829C190.719 372.563 189.845 373.611 189.181 374.345L181.701 382.629H192.816V384.027ZM208.266 359.945V378.19H211.517V379.588H208.266V384.027H206.729V379.588H194.181L208.266 359.945ZM196.907 378.19H206.729V364.489L196.907 378.19Z" fill="black"></path><path d="M272.589 123.123V112.637C270.911 112.742 268.01 112.882 266.647 112.882C264.759 112.882 263.187 112.742 261.893 112.113C259.691 111.029 259.447 109.317 259.447 106.905V99.8096H260.985V106.905C260.985 108.198 260.985 110.051 262.872 110.96C263.746 111.379 264.934 111.484 267.136 111.484C268.989 111.484 270.422 111.414 272.589 111.239V99.8096H274.127V123.123H272.589ZM291.396 101.208H285.349V123.123H283.811V101.208H277.765V99.8096H291.396V101.208Z" fill="black"></path><path d="M279.431 164.267V182.513H282.681V183.911H279.431V188.35H277.893V183.911H265.345L279.431 164.267ZM268.071 182.513H277.893V168.811L268.071 182.513Z" fill="black"></path><path d="M268.579 253.574V231.659H264.944L265.643 230.261H270.117V253.574H268.579ZM280.287 253.574V231.659H276.651L277.351 230.261H281.824V253.574H280.287Z" fill="black"></path><path d="M267.043 318.801V296.885H263.408L264.107 295.487H268.581V318.801H267.043ZM284.828 306.707C287.31 307.651 288.638 310.063 288.638 312.614C288.638 316.669 285.562 319.185 281.892 319.185C278.222 319.185 275.147 316.669 275.147 312.614C275.147 310.063 276.475 307.651 278.956 306.707C275.776 305.029 275.706 302.023 275.706 301.324C275.706 297.794 278.397 295.173 281.892 295.173C285.388 295.173 288.079 297.794 288.079 301.324C288.079 302.023 288.009 305.029 284.828 306.707ZM281.892 306.043C284.374 306.043 286.471 304.086 286.471 301.324C286.471 298.563 284.444 296.571 281.892 296.571C279.341 296.571 277.314 298.563 277.314 301.324C277.314 304.086 279.411 306.043 281.892 306.043ZM281.892 317.787C285.038 317.787 287.031 315.48 287.031 312.614C287.031 309.538 284.898 307.371 281.892 307.371C278.887 307.371 276.754 309.538 276.754 312.614C276.754 315.48 278.747 317.787 281.892 317.787Z" fill="black"></path><path d="M272.684 384.027H258.319L267.267 374.171C268.07 373.262 268.979 372.283 269.818 371.025C270.482 370.011 271.181 368.683 271.181 367.04C271.181 364.104 268.979 361.797 265.764 361.797C264.505 361.797 262.967 362.112 261.744 363.51C261.045 364.279 260.381 365.607 260.381 367.32H258.843C258.843 365.223 259.647 363.51 260.695 362.427C261.709 361.378 263.352 360.399 265.868 360.399C269.888 360.399 272.789 363.265 272.789 367.04C272.789 369.033 272.02 370.571 271.111 371.829C270.587 372.563 269.713 373.611 269.049 374.345L261.569 382.629H272.684V384.027ZM290.057 360.714V362.112H282.228L280.271 368.403C280.83 368.264 281.284 368.194 281.843 368.194C286.807 368.194 289.952 371.619 289.952 376.268C289.952 381.301 286.213 384.412 281.669 384.412C279.222 384.412 276.356 383.468 274.678 380.567L276.041 380.008C277.335 381.93 279.362 383.014 281.704 383.014C285.548 383.014 288.345 380.217 288.345 376.303C288.345 372.353 285.653 369.592 281.774 369.592C280.306 369.592 279.152 369.976 278.138 370.606L281.144 360.714H290.057Z" fill="black"></path><path d="M338.014 99.8096H355.211V123.123H353.673V101.208H339.552V123.123H338.014V99.8096ZM372.473 101.208H366.427V123.123H364.889V101.208H358.842V99.8096H372.473V101.208Z" fill="black"></path><path d="M361.222 165.036V166.434H353.393L351.435 172.726C351.994 172.586 352.449 172.516 353.008 172.516C357.971 172.516 361.117 175.941 361.117 180.59C361.117 185.623 357.377 188.734 352.833 188.734C350.387 188.734 347.52 187.79 345.843 184.889L347.206 184.33C348.499 186.252 350.526 187.336 352.868 187.336C356.713 187.336 359.509 184.54 359.509 180.625C359.509 176.675 356.818 173.914 352.938 173.914C351.47 173.914 350.317 174.299 349.303 174.928L352.309 165.036H361.222Z" fill="black"></path><path d="M347.645 253.574V231.659H344.01L344.709 230.261H349.183V253.574H347.645ZM367.913 253.574H353.547L362.495 243.718C363.299 242.809 364.208 241.83 365.047 240.572C365.711 239.558 366.41 238.23 366.41 236.587C366.41 233.651 364.208 231.344 360.992 231.344C359.734 231.344 358.196 231.659 356.973 233.057C356.274 233.826 355.61 235.154 355.61 236.867H354.072C354.072 234.77 354.876 233.057 355.924 231.973C356.938 230.925 358.581 229.946 361.097 229.946C365.117 229.946 368.018 232.812 368.018 236.587C368.018 238.58 367.249 240.117 366.34 241.376C365.816 242.11 364.942 243.158 364.278 243.892L356.798 252.176H367.913V253.574Z" fill="black"></path><path d="M347.355 318.801V296.885H343.72L344.419 295.487H348.893V318.801H347.355ZM360.374 319.185L359.185 318.276L364.358 310.901C363.275 311.356 362.226 311.531 361.178 311.531C356.564 311.531 353.069 308.14 353.069 303.387C353.069 298.738 356.494 295.173 361.387 295.173C366.106 295.173 369.636 298.633 369.636 303.422C369.636 305.938 368.518 307.616 368.133 308.175L360.374 319.185ZM361.352 296.571C357.508 296.571 354.676 299.542 354.676 303.352C354.676 307.336 357.542 310.133 361.352 310.133C365.232 310.133 368.028 307.231 368.028 303.352C368.028 299.507 365.197 296.571 361.352 296.571Z" fill="black"></path><path d="M351.682 384.027H337.317L346.265 374.171C347.069 373.262 347.977 372.283 348.816 371.025C349.48 370.011 350.179 368.683 350.179 367.04C350.179 364.104 347.977 361.797 344.762 361.797C343.504 361.797 341.966 362.112 340.742 363.51C340.043 364.279 339.379 365.607 339.379 367.32H337.841C337.841 365.223 338.645 363.51 339.694 362.427C340.707 361.378 342.35 360.399 344.867 360.399C348.886 360.399 351.787 363.265 351.787 367.04C351.787 369.033 351.018 370.571 350.11 371.829C349.585 372.563 348.711 373.611 348.047 374.345L340.567 382.629H351.682V384.027ZM364.889 360.399L366.078 361.308L360.905 368.648C361.988 368.194 363.037 368.019 364.085 368.019C368.699 368.019 372.194 371.409 372.194 376.163C372.194 380.847 368.734 384.412 363.876 384.412C359.157 384.412 355.627 380.986 355.627 376.128C355.627 373.611 356.745 371.934 357.13 371.374L364.889 360.399ZM363.911 383.014C367.756 383.014 370.587 380.043 370.587 376.198C370.587 372.213 367.756 369.417 363.911 369.417C360.031 369.417 357.235 372.318 357.235 376.198C357.235 380.113 360.101 383.014 363.911 383.014Z" fill="black"></path><path d="M434.548 102.536V104.563C432.555 102.221 429.689 100.893 426.683 100.893C420.706 100.893 416.232 105.682 416.232 111.589C416.232 118.509 422 122.109 426.718 122.109C429.06 122.109 432.171 121.166 434.548 118.579V120.606C432.171 122.704 429.305 123.508 426.788 123.508C419.798 123.508 414.625 118.02 414.625 111.519C414.625 104.808 420.007 99.495 426.718 99.495C431.157 99.495 433.848 101.872 434.548 102.536ZM439.571 123.123V99.8096H450.791V101.208H441.109V109.841H445.164C447.995 109.841 453.203 110.4 453.203 116.237C453.203 119.733 451.106 123.123 445.653 123.123H439.571ZM441.109 111.239V121.725H445.024C446.387 121.725 448.554 121.725 450.127 120.187C450.896 119.453 451.595 118.195 451.595 116.237C451.595 114.49 451.071 112.917 449.183 111.938C447.785 111.239 446.178 111.239 444.744 111.239H441.109Z" fill="black"></path><path d="M435.183 164.722L436.372 165.63L431.199 172.97C432.282 172.516 433.331 172.341 434.379 172.341C438.993 172.341 442.488 175.732 442.488 180.485C442.488 185.169 439.028 188.734 434.17 188.734C429.451 188.734 425.921 185.309 425.921 180.45C425.921 177.934 427.039 176.256 427.424 175.697L435.183 164.722ZM434.205 187.336C438.049 187.336 440.881 184.365 440.881 180.52C440.881 176.536 438.049 173.739 434.205 173.739C430.325 173.739 427.529 176.64 427.529 180.52C427.529 184.435 430.395 187.336 434.205 187.336Z" fill="black"></path><path d="M427.224 253.574V231.659H423.589L424.288 230.261H428.762V253.574H427.224ZM434.265 247.912H435.803C435.838 248.821 436.118 249.694 436.572 250.394C437.446 251.652 439.159 252.561 440.696 252.561C443.563 252.561 445.939 250.044 445.939 247.143C445.939 245.151 444.961 243.648 443.737 242.879C442.968 242.389 441.885 242.18 440.766 242.18V240.782C442.549 240.782 443.667 239.908 443.912 239.698C444.926 238.859 445.625 237.426 445.625 235.888C445.625 233.407 444.052 231.344 441.151 231.344C440.207 231.344 438.844 231.519 437.795 232.707C437.061 233.511 436.642 234.665 436.607 235.818H435.139C435.174 234.071 435.908 232.603 436.852 231.624C438.25 230.191 439.893 229.946 441.151 229.946C444.996 229.946 447.233 232.603 447.233 235.783C447.233 237.776 446.359 240.292 443.563 241.411C446.079 242.215 447.547 244.452 447.547 247.108C447.547 251.023 444.506 253.959 440.696 253.959C438.599 253.959 436.292 252.91 435.104 250.918C434.65 250.184 434.265 249.17 434.265 247.912Z" fill="black"></path><path d="M431.551 318.801H417.185L426.133 308.944C426.937 308.035 427.846 307.057 428.685 305.798C429.349 304.785 430.048 303.457 430.048 301.814C430.048 298.878 427.846 296.571 424.63 296.571C423.372 296.571 421.834 296.885 420.611 298.284C419.912 299.053 419.248 300.381 419.248 302.093H417.71C417.71 299.996 418.514 298.284 419.562 297.2C420.576 296.151 422.219 295.173 424.735 295.173C428.755 295.173 431.656 298.039 431.656 301.814C431.656 303.806 430.887 305.344 429.978 306.602C429.454 307.336 428.58 308.385 427.916 309.119L420.436 317.403H431.551V318.801ZM443.814 295.173C445.317 295.173 447.414 295.732 449.302 298.004C451.119 300.171 452.273 303.317 452.273 307.162C452.273 311.006 451.119 314.152 449.302 316.319C447.624 318.311 445.597 319.185 443.814 319.185C442.032 319.185 440.004 318.311 438.327 316.319C436.509 314.152 435.356 311.006 435.356 307.162C435.356 303.317 436.509 300.171 438.327 298.004C440.214 295.732 442.311 295.173 443.814 295.173ZM443.814 317.787C444.618 317.787 446.436 317.542 448.148 315.41C449.651 313.558 450.665 310.867 450.665 307.162C450.665 303.422 449.651 300.765 448.148 298.913C447.309 297.864 445.876 296.571 443.814 296.571C441.752 296.571 440.319 297.864 439.48 298.913C437.977 300.765 436.963 303.422 436.963 307.162C436.963 310.867 437.977 313.558 439.48 315.41C441.193 317.542 443.01 317.787 443.814 317.787Z" fill="black"></path><path d="M431.995 384.027H417.629L426.577 374.171C427.381 373.262 428.29 372.283 429.129 371.025C429.793 370.011 430.492 368.683 430.492 367.04C430.492 364.104 428.29 361.797 425.074 361.797C423.816 361.797 422.278 362.112 421.054 363.51C420.355 364.279 419.691 365.607 419.691 367.32H418.153C418.153 365.223 418.957 363.51 420.006 362.427C421.019 361.378 422.662 360.399 425.179 360.399C429.198 360.399 432.099 363.265 432.099 367.04C432.099 369.033 431.331 370.571 430.422 371.829C429.897 372.563 429.024 373.611 428.36 374.345L420.88 382.629H431.995V384.027ZM434.562 383.538L449.662 362.112H435.506V360.714H452.388L435.716 384.412L434.562 383.538Z" fill="black"></path><path d="M495.751 123.123V99.8096H500.854C504.909 99.8096 507.286 102.151 507.286 105.647C507.286 108.163 506.097 109.806 504.559 110.75C507.6 111.239 509.383 113.581 509.383 116.587C509.383 120.676 506.377 123.123 502.148 123.123H495.751ZM497.289 101.208V110.365H500.994C502.183 110.365 503.161 110.226 504.175 109.387C505.119 108.618 505.713 107.429 505.713 105.821C505.713 103.969 504.909 102.816 504.14 102.186C502.986 101.278 501.484 101.208 500.26 101.208H497.289ZM497.289 111.763V121.725H501.204C502.777 121.725 504.699 121.725 506.272 120.327C507.53 119.208 507.775 117.845 507.775 116.762C507.775 114.664 507.041 113.231 505.293 112.428C504.664 112.148 503.511 111.763 500.924 111.763H497.289ZM533.087 102.536V104.563C531.095 102.221 528.229 100.893 525.223 100.893C519.246 100.893 514.772 105.682 514.772 111.589C514.772 118.509 520.539 122.109 525.258 122.109C527.599 122.109 530.71 121.166 533.087 118.579V120.606C530.71 122.704 527.844 123.508 525.328 123.508C518.337 123.508 513.164 118.02 513.164 111.519C513.164 104.808 518.547 99.495 525.258 99.495C529.697 99.495 532.388 101.872 533.087 102.536Z" fill="black"></path><path d="M505.3 187.86L520.4 166.434H506.244V165.036H523.126L506.453 188.734L505.3 187.86Z" fill="black"></path><path d="M506.853 253.574V231.659H503.218L503.917 230.261H508.391V253.574H506.853ZM526.222 229.492V247.737H529.472V249.135H526.222V253.574H524.684V249.135H512.136L526.222 229.492ZM514.862 247.737H524.684V234.036L514.862 247.737Z" fill="black"></path><path d="M513.809 318.801H499.443L508.391 308.944C509.195 308.035 510.104 307.057 510.943 305.798C511.607 304.785 512.306 303.457 512.306 301.814C512.306 298.878 510.104 296.571 506.888 296.571C505.63 296.571 504.092 296.885 502.869 298.284C502.169 299.053 501.505 300.381 501.505 302.093H499.967C499.967 299.996 500.771 298.284 501.82 297.2C502.834 296.151 504.476 295.173 506.993 295.173C511.012 295.173 513.914 298.039 513.914 301.814C513.914 303.806 513.145 305.344 512.236 306.602C511.712 307.336 510.838 308.385 510.174 309.119L502.694 317.403H513.809V318.801ZM521.223 318.801V296.885H517.588L518.287 295.487H522.761V318.801H521.223Z" fill="black"></path><path d="M511.419 384.027H497.054L506.002 374.171C506.806 373.262 507.714 372.283 508.553 371.025C509.217 370.011 509.916 368.683 509.916 367.04C509.916 364.104 507.714 361.797 504.499 361.797C503.24 361.797 501.703 362.112 500.479 363.51C499.78 364.279 499.116 365.607 499.116 367.32H497.578C497.578 365.223 498.382 363.51 499.431 362.427C500.444 361.378 502.087 360.399 504.604 360.399C508.623 360.399 511.524 363.265 511.524 367.04C511.524 369.033 510.755 370.571 509.846 371.829C509.322 372.563 508.448 373.611 507.784 374.345L500.304 382.629H511.419V384.027ZM526.619 371.934C529.1 372.877 530.428 375.289 530.428 377.841C530.428 381.895 527.353 384.412 523.683 384.412C520.013 384.412 516.937 381.895 516.937 377.841C516.937 375.289 518.265 372.877 520.747 371.934C517.566 370.256 517.496 367.25 517.496 366.551C517.496 363.021 520.187 360.399 523.683 360.399C527.178 360.399 529.869 363.021 529.869 366.551C529.869 367.25 529.799 370.256 526.619 371.934ZM523.683 371.27C526.164 371.27 528.261 369.312 528.261 366.551C528.261 363.79 526.234 361.797 523.683 361.797C521.131 361.797 519.104 363.79 519.104 366.551C519.104 369.312 521.201 371.27 523.683 371.27ZM523.683 383.014C526.828 383.014 528.821 380.707 528.821 377.841C528.821 374.765 526.689 372.598 523.683 372.598C520.677 372.598 518.545 374.765 518.545 377.841C518.545 380.707 520.537 383.014 523.683 383.014Z" fill="black"></path></svg> 