<?xml version="1.0" encoding="UTF-8"?> <svg xmlns="http://www.w3.org/2000/svg" width="191" height="191" viewBox="0 0 191 191" fill="none"><rect width="191" height="191" fill="#8B2D2F"></rect><path d="M34.9565 131.65V74.9697H49.0731V131.65H34.9565ZM42.0148 53.4739C46.7203 53.4739 49.0731 55.5772 49.0731 59.7836C49.0731 63.9901 46.7203 66.0933 42.0148 66.0933C37.3092 66.0933 34.9565 63.9901 34.9565 59.7836C34.9565 55.5772 37.3092 53.4739 42.0148 53.4739ZM92.2442 73.4725C99.3025 73.4725 104.899 75.0053 109.034 78.0711C109.605 78.5701 110.318 78.8197 111.173 78.8197C111.958 78.8197 112.706 78.5701 113.419 78.0711C117.554 75.0053 123.151 73.4725 130.209 73.4725C138.907 73.4725 145.431 75.8609 149.78 80.6377C154.129 85.3433 156.304 92.9006 156.304 103.31V131.65H142.08V103.31C142.08 93.8988 141.082 87.09 139.086 82.8835C137.161 78.6058 134.202 76.4669 130.209 76.4669C126.145 76.4669 123.115 78.6414 121.119 82.9905C119.194 87.2683 118.232 94.0414 118.232 103.31V131.65H104.115V103.31C104.115 93.8988 103.117 87.09 101.121 82.8835C99.1956 78.6058 96.2368 76.4669 92.2442 76.4669C88.1803 76.4669 85.1503 78.6414 83.154 82.9905C81.229 87.2683 80.2665 94.0414 80.2665 103.31V131.65H66.1499V74.9697H76.5234C77.0225 74.9697 77.4859 75.0766 77.9137 75.2905C78.3415 75.4331 78.8049 75.5044 79.304 75.5044C79.8744 75.5044 80.3021 75.4331 80.5873 75.2905C84.0095 74.0785 87.8952 73.4725 92.2442 73.4725Z" fill="white"></path></svg> 