<?xml version="1.0" encoding="UTF-8"?> <svg xmlns="http://www.w3.org/2000/svg" width="300" height="300" viewBox="0 0 300 300" fill="none"><path d="M188.385 39.0922C206.02 27.1967 227.027 19.4676 245.307 25.2334L246.176 25.5179C267.324 32.7192 279.05 45.3726 284.815 60.7633C290.611 76.2378 290.432 94.6222 287.424 113.289C285.21 127.023 277.058 142.723 265.552 158.917C254.067 175.082 239.337 191.608 224.135 206.979C193.732 237.72 161.546 263.737 149.937 272.878C147.82 274.544 144.991 274.464 142.972 272.681C131.891 262.891 101.167 235.032 72.1194 202.188C57.5951 185.766 43.5124 168.123 32.5185 150.889C21.5088 133.631 13.6729 116.901 11.5082 102.288C8.87305 84.5 9.91144 68.15 16.7064 54.8692C23.4731 41.644 36.0589 31.2486 56.9832 25.5432C77.6225 19.9157 97.8934 27.7585 114.679 39.6231C131.451 51.4783 144.494 67.1834 150.536 76.7457L152.083 79.193L153.101 76.4829C154.828 71.8867 159.134 65.5688 165.334 58.8336C171.508 52.1268 179.468 45.107 188.385 39.0922Z" fill="#770418" stroke="white" stroke-width="2.8794"></path><mask id="mask0_2703_90" style="mask-type:alpha" maskUnits="userSpaceOnUse" x="8" y="21" width="283" height="255"><path d="M246.624 24.155C208.351 11.118 159.034 56.568 151.737 75.9767C139.479 56.5761 99.0616 12.5739 56.5889 24.1547C14.1176 35.7352 4.75321 66.6167 10.0688 102.5C18.9044 162.144 119.805 254.149 142.003 273.76C144.543 276.004 148.148 276.106 150.812 274.009C174.069 255.699 279.765 169.77 288.83 113.518C294.88 75.9767 289.697 38.8221 246.624 24.155Z" fill="#7D0F22"></path></mask><g mask="url(#mask0_2703_90)"><path d="M480.158 -155.742C488.223 -148.59 482.467 -134.745 472.121 -129.231L471.202 -128.754C454.16 -120.149 432.463 -122.086 427.435 -122.685L348.247 -39.3086C349.948 -36.6563 349.512 -33.0866 347.079 -30.9318C344.939 -29.0363 341.9 -28.8087 339.547 -30.1485L329.275 -19.3334C327.641 -14.223 328.751 -8.45121 332.558 -4.2728C328.266 -7.85995 322.528 -8.74109 317.529 -6.96508L303.245 8.07494C304.685 10.6818 304.184 14.0272 301.861 16.0846C299.834 17.8809 296.998 18.1804 294.704 17.0669L243.51 70.9708C247.46 69.7975 252.495 69.2314 255.256 71.5765C260.311 75.8712 259.125 85.4028 252.831 88.9309C240.982 95.5733 219.413 93.7195 219.35 93.7141C219.339 93.6389 216.138 72.8542 225.142 58.8335L225.581 58.1703C230.047 51.6174 239.151 53.6743 241.164 59.3769C242.242 62.4285 241.951 66.328 241.049 69.7821L292.63 15.4719C290.3 12.7816 290.562 8.71102 293.233 6.34493C295.619 4.23207 299.122 4.19022 301.546 6.08352L314.72 -7.78811C316.968 -13.1807 316.004 -19.5599 311.888 -24.077C316.516 -20.2095 322.824 -19.4877 328.075 -21.8501L337.588 -31.8651C335.543 -34.5495 335.884 -38.3973 338.451 -40.6714C340.729 -42.6896 344.029 -42.8205 346.433 -41.1784L425.819 -124.763C424.167 -131.147 419.873 -152.135 429.126 -170.221L429.667 -171.247C430.518 -172.812 431.476 -174.353 432.547 -175.857C440.029 -186.349 454.614 -185.383 457.688 -176.049C459.722 -169.875 461.121 -163.451 458.677 -157.131C464.959 -159.768 474.131 -160.795 479.886 -155.976L480.158 -155.742ZM255.721 80.1954C256.084 77.4903 255.268 75.0029 253.571 73.561C252.617 72.7506 250.785 72.3653 248.18 72.6495C245.699 72.9202 243.125 73.7366 241.376 74.5152L235.786 77.0029L237.872 71.2502C239.208 67.5646 239.75 63.1867 238.711 60.244L238.711 60.2433C237.402 56.5362 230.988 54.8581 227.732 59.635C223.345 66.0769 221.831 74.3988 221.478 81.3408C221.304 84.7758 221.417 87.7925 221.574 89.9463C221.609 90.4255 221.648 90.8614 221.684 91.2487C222.076 91.2668 222.515 91.2863 222.997 91.3018C225.154 91.3714 228.151 91.3962 231.504 91.2189C238.321 90.8584 246.178 89.6775 251.559 86.6609C253.878 85.3607 255.36 82.8832 255.721 80.1954ZM427.992 -139.062L426.716 -141.286L437.169 -149.923L426.647 -142.983L425.978 -143.792C425.988 -142.15 426.052 -140.557 426.159 -139.033C426.477 -134.495 427.155 -130.614 427.752 -127.875C427.818 -127.57 427.884 -127.279 427.948 -127.004L435.904 -135.381L429.426 -133.417L428.455 -135.821L443.772 -143.665L445.447 -145.428L427.992 -139.062ZM429.697 -125.067C429.762 -125.061 429.828 -125.053 429.895 -125.047L429.858 -125.237L429.697 -125.067ZM432.384 -124.862C434.924 -124.706 438.174 -124.606 441.838 -124.729C447.932 -124.934 455.056 -125.748 461.927 -127.855L432.384 -124.862ZM440.943 -136.908L432.528 -128.047L442.057 -130.819L441.238 -133.223L463.353 -143.7L440.943 -136.908ZM427.741 -159.118C426.609 -154.656 426.11 -150.197 426.001 -146.006L447.495 -168.075L427.741 -159.118ZM480.582 -142.714C482.078 -147.095 481.448 -151.12 478.432 -153.795C476.417 -155.582 473.735 -156.495 470.728 -156.7L471.496 -154.938L445.352 -141.55L444.569 -140.726L479.377 -151.274L480.311 -148.853L452.625 -135.739L477.946 -141.254L478.588 -138.733L443.896 -128.644L466.405 -130.923L466.536 -129.629L466.55 -129.496C468.03 -130.1 469.484 -130.774 470.897 -131.527C475.495 -133.977 479.074 -138.302 480.582 -142.714ZM434.204 -144.099L449.473 -149.666L455.423 -155.932L456.25 -158.069C456.903 -159.758 457.243 -161.472 457.341 -163.214L434.204 -144.099ZM455.217 -175.235C454.379 -177.778 452.331 -179.593 449.606 -180.369L450.195 -179.47L433.283 -164.489L452.704 -173.294L454.173 -171.201L435.254 -151.778L455.938 -165.418L457.355 -163.502C457.509 -167.257 456.562 -171.149 455.217 -175.235ZM432.627 -171.196C432.396 -170.801 432.17 -170.403 431.953 -170.004C430.988 -168.229 430.167 -166.415 429.468 -164.585L441.742 -175.46L432.627 -171.196ZM450.936 -147.429L450.758 -147.241L451.591 -147.668L450.936 -147.429ZM468.874 -156.741C465.662 -156.663 462.385 -155.864 459.685 -154.731L456.669 -153.466L454.961 -151.668L468.874 -156.741ZM446.719 -180.786C442.945 -180.859 438.671 -179.198 435.489 -175.406L446.975 -180.779C446.89 -180.782 446.804 -180.784 446.719 -180.786Z" fill="white"></path></g><g filter="url(#filter0_d_2703_90)"><path d="M224.996 87.9001C230.299 94.0575 239.736 94.6245 237.326 96.7001C234.916 98.7757 222.663 100.634 217.36 94.477C212.057 88.3196 215.711 76.478 218.121 74.4024C220.531 72.3268 219.693 81.7428 224.996 87.9001Z" fill="#770418"></path></g><defs><filter id="filter0_d_2703_90" x="213.049" y="69.6463" width="29.1249" height="30.6171" filterUnits="userSpaceOnUse" color-interpolation-filters="sRGB"><feFlood flood-opacity="0" result="BackgroundImageFix"></feFlood><feColorMatrix in="SourceAlpha" type="matrix" values="0 0 0 0 0 0 0 0 0 0 0 0 0 0 0 0 0 0 127 0" result="hardAlpha"></feColorMatrix><feOffset dx="1.4397" dy="-1.4397"></feOffset><feGaussianBlur stdDeviation="1.51169"></feGaussianBlur><feComposite in2="hardAlpha" operator="out"></feComposite><feColorMatrix type="matrix" values="0 0 0 0 0 0 0 0 0 0 0 0 0 0 0 0 0 0 0.25 0"></feColorMatrix><feBlend mode="normal" in2="BackgroundImageFix" result="effect1_dropShadow_2703_90"></feBlend><feBlend mode="normal" in="SourceGraphic" in2="effect1_dropShadow_2703_90" result="shape"></feBlend></filter></defs></svg> 