<?xml version="1.0" encoding="UTF-8"?> <svg xmlns="http://www.w3.org/2000/svg" width="95" height="95" viewBox="0 0 95 95" fill="none"><path d="M90 26.5319C90 36.8865 86.4814 47.4482 79.444 58.217C72.4067 68.9858 64.1276 77.5801 54.6065 84L51.5018 80.8936C55.8484 75.7163 59.781 69.4 63.2996 61.9447C66.8183 54.2823 68.6811 47.6553 68.8881 42.0638C63.5066 37.0936 59.367 31.9163 56.4693 26.5319C57.7112 24.0468 60.0915 21.2511 63.6101 18.1447C67.1288 14.8312 70.3369 12.4496 73.2347 11C75.9254 12.6567 79.0301 15.1418 82.5487 18.4553C86.0674 21.5617 88.5511 24.2539 90 26.5319ZM42.4982 26.5319C42.4982 36.8865 38.9795 47.4482 31.9422 58.217C24.9049 68.9858 16.6258 77.5801 7.10469 84L4 80.8936C8.34657 75.7163 12.2792 69.4 15.7978 61.9447C19.3165 54.2823 21.1793 47.6553 21.3863 42.0638C16.0048 37.0936 11.8652 31.9163 8.96751 26.5319C10.2094 24.0468 12.5897 21.2511 16.1083 18.1447C19.627 14.8312 22.8351 12.4496 25.7329 11C28.4236 12.6567 31.5283 15.1418 35.0469 18.4553C38.5656 21.5617 41.0493 24.2539 42.4982 26.5319Z" fill="black" fill-opacity="0.05"></path></svg> 