<?xml version="1.0" encoding="UTF-8"?> <svg xmlns="http://www.w3.org/2000/svg" width="344" height="114" viewBox="0 0 344 114" fill="none"><g clip-path="url(#clip0_1909_5)"><path d="M68.6289 54.6557C68.6544 54.7973 68.4414 55.1037 67.9899 55.5749C67.5857 56.0375 67.0676 56.545 66.4358 57.0973C65.8039 57.6497 65.1485 58.2062 64.4694 58.767C63.7904 59.3279 63.2209 59.8202 62.7609 60.2441C61.5445 61.3403 60.4036 62.1791 59.3383 62.7607C58.3202 63.3337 57.4098 63.6924 56.6071 63.8367C55.6156 64.0151 54.6784 63.818 53.7955 63.2456C52.9127 62.6732 52.3906 61.9384 52.2293 61.0413C51.9745 59.6248 52.0975 58.1403 52.5983 56.588C53.1378 54.9799 53.8958 53.5031 54.8725 52.1576C55.8963 50.8036 57.0292 49.6494 58.2712 48.6949C59.5518 47.6846 60.8296 47.0649 62.1045 46.8356C62.86 46.6998 63.452 46.7395 63.8807 46.9549C64.3094 47.1703 64.6691 47.5443 64.9599 48.077C65.0968 48.2961 65.1109 48.781 65.0021 49.5317C64.9406 50.2739 64.3343 50.9679 63.183 51.6136C63.0112 51.742 62.861 51.7203 62.7326 51.5484C62.6514 51.368 62.6689 51.1942 62.7851 51.0271C63.2583 50.4058 63.4803 49.8785 63.4511 49.445C63.4219 49.0116 63.3153 48.6895 63.1311 48.4789C62.9385 48.2211 62.7157 48.0662 62.4626 48.0142C62.2096 47.9622 62.0915 47.9835 62.1085 48.0779C62.083 47.9362 61.905 47.8951 61.5745 47.9546C60.8663 48.0819 60.0286 48.5738 59.0614 49.4301C58.1415 50.278 57.275 51.2868 56.4617 52.4567C55.6485 53.6266 54.9938 54.8654 54.4979 56.1732C54.0491 57.4725 53.9181 58.6416 54.1049 59.6804C54.4276 61.4746 55.368 62.2317 56.9262 61.9515C58.1538 61.7307 59.6053 61.1285 61.2807 60.1448C63.0033 59.1526 64.9437 57.6094 67.1018 55.5152C67.1792 55.4038 67.362 55.2004 67.6501 54.9048C67.9854 54.6008 68.2238 54.4361 68.3655 54.4106C68.5071 54.3851 68.5949 54.4668 68.6289 54.6557ZM44.0401 55.3485C43.9223 54.1511 43.632 53.3503 43.1694 52.946C42.7455 52.4861 42.1321 52.3283 41.3294 52.4726C40.1018 52.6934 38.7206 53.5511 37.1858 55.0457C35.6983 56.5318 33.8754 58.3219 31.7173 60.4161C31.6786 60.4718 31.5539 60.5917 31.3433 60.7758C31.1799 60.9514 30.9736 61.1591 30.7242 61.399C30.5136 61.5831 30.303 61.7672 30.0924 61.9513C29.8733 62.0882 29.7401 62.1609 29.6929 62.1694C29.5512 62.1948 29.4592 62.0895 29.4167 61.8534C29.3913 61.7118 29.6623 61.3218 30.23 60.6836C30.8363 59.9896 31.5523 59.2272 32.3777 58.3963C33.2032 57.5654 34.0329 56.7582 34.8669 55.9745C35.7396 55.1352 36.4059 54.5035 36.8659 54.0796C38.0436 53.0392 39.0749 52.2688 39.9598 51.7684C40.892 51.2596 41.783 50.9288 42.6329 50.7759C43.6245 50.5976 44.4115 50.7729 44.9941 51.3018C45.6239 51.8222 45.9953 52.8034 46.1084 54.2454C46.2214 55.6874 45.9247 57.1544 45.2181 58.6463C44.5115 60.1382 43.5905 61.5224 42.4553 62.799C41.3115 64.0283 40.0587 65.0579 38.6968 65.8877C37.335 66.7175 36.0039 67.1762 34.7036 67.2638C33.2143 67.3854 32.4344 66.8432 32.3638 65.6373C32.3309 64.9121 33.2239 63.5085 35.0431 61.4266C35.2064 61.251 35.4062 61.1419 35.6423 61.0995C36.037 61.126 36.2447 61.3324 36.2654 61.7186C36.2607 61.9632 36.1959 62.1454 36.0713 62.2653C35.9466 62.3852 35.6968 62.8932 35.3217 63.7893C34.9721 64.8271 34.812 65.5627 34.8412 65.9961C34.8666 66.1378 35.0489 66.2025 35.3879 66.1903C36.1131 66.1573 36.9721 65.7835 37.9646 65.0688C38.996 64.2984 39.974 63.367 40.8986 62.2746C41.8233 61.1822 42.5893 60.0208 43.1967 58.7904C43.8514 57.5516 44.1325 56.4043 44.0401 55.3485ZM49.4503 60.225C49.8725 59.3204 50.5049 58.4999 51.3473 57.7634C52.1813 56.9798 52.9269 56.3826 53.5843 55.9719C53.7466 56.3327 53.7267 56.6287 53.5246 56.8601C53.314 57.0442 53.1228 57.2004 52.9509 57.3288C52.2718 57.8896 51.5087 58.6606 50.6615 59.6416C49.8142 60.6226 49.1856 61.7349 48.7756 62.9785C48.4318 63.2353 48.2212 63.4194 48.1437 63.5308C48.0748 63.6894 47.9931 63.7772 47.8986 63.7942C47.6541 63.7895 47.4161 63.686 47.1848 63.4839C46.9535 63.2818 46.851 62.9834 46.8775 62.5886C46.9635 62.5244 47.1057 62.2308 47.3041 61.7077C47.494 61.1373 47.656 60.5476 47.7902 59.9386C47.8857 59.3852 48.0307 58.7011 48.2254 57.8861C48.4116 57.024 48.5741 56.1661 48.7131 55.3125C48.7481 54.965 48.7831 54.6175 48.8181 54.27C48.9003 53.914 48.9783 53.5344 49.052 53.1312C48.9103 53.1566 48.8135 53.2959 48.7615 53.549C47.8868 55.4611 46.7921 56.8278 45.4775 57.6491C45.2 56.9191 45.1901 56.4578 45.4479 56.2652C46.127 55.7044 46.8901 54.9335 47.7374 53.9525C48.5846 52.9715 49.2132 51.8592 49.6232 50.6156C49.967 50.3588 50.1776 50.1747 50.2551 50.0633C50.324 49.9046 50.4057 49.8168 50.5002 49.7998C50.7448 49.8046 50.9827 49.908 51.214 50.1102C51.4454 50.3123 51.5478 50.6107 51.5213 51.0054C51.4353 51.0696 51.2974 51.3869 51.1075 51.9572C50.9091 52.4804 50.7428 53.0465 50.6086 53.6555C50.4914 54.359 50.3416 55.2877 50.1591 56.4417C49.9682 57.5484 49.7319 58.8095 49.4503 60.225ZM83.6235 51.5205C83.6829 51.851 82.8551 52.8042 81.1399 54.38C76.9144 58.2595 73.7629 60.3861 71.6853 60.7597C68.6162 61.3116 66.7589 59.7933 66.1136 56.2048C65.6381 53.5606 66.4375 50.6872 68.5117 47.5845C70.6247 44.4261 72.838 42.6388 75.1517 42.2228C75.8599 42.0954 76.2735 42.3622 76.3924 43.0233C76.6811 44.6287 75.6957 47.1456 73.4363 50.574C71.6332 53.2868 70.0998 55.1955 68.8361 56.3001C69.3513 58.3522 70.5297 59.2127 72.3712 58.8815C74.1182 58.5674 76.8334 56.8605 80.5168 53.7609C80.8133 53.5126 81.6322 52.7804 82.9733 51.5643C83.0895 51.3972 83.2184 51.3009 83.3601 51.2754C83.5017 51.2499 83.5895 51.3316 83.6235 51.5205ZM74.4387 44.7638C74.3368 44.1972 74.1206 43.9436 73.7901 44.0031C72.6097 44.2153 71.3818 45.6547 70.1066 48.3213C68.8313 50.9878 68.3399 53.2697 68.6323 55.1669C69.4785 54.7223 70.6742 53.2399 72.2196 50.7197C73.9198 47.9768 74.6595 45.9915 74.4387 44.7638ZM90.6541 54.2776C90.5464 54.492 90.4042 54.7856 90.2276 55.1586C90.0424 55.4844 89.8573 55.8101 89.6722 56.1359C89.5427 56.5004 89.4006 56.794 89.2457 57.0169C89.0992 57.2869 88.9788 57.4304 88.8844 57.4474C88.2706 57.5578 87.9042 57.2825 87.7853 56.6214C87.7429 56.3853 87.8232 55.8834 88.0264 55.1157C88.4486 54.2111 88.8752 53.3302 89.3059 52.4728C89.7367 51.6154 90.1396 50.7387 90.5146 49.8426C91.7426 47.1845 92.2675 45.3597 92.0892 44.3682C92.0128 43.9432 91.8329 43.7562 91.5496 43.8071C91.3608 43.8411 91.0944 43.9865 90.7507 44.2433C89.6843 45.3612 88.4159 46.7104 86.9453 48.291C85.522 49.863 83.8257 51.6791 81.8564 53.7393L81.3606 53.8285C81.0301 53.8879 80.8564 53.8704 80.8394 53.776C80.8224 53.6815 81.0396 53.3988 81.4911 52.9276C82.906 51.3083 84.3874 49.6527 85.9354 47.9608C87.5222 46.2131 89.1949 44.4012 90.9535 42.5251C91.388 41.9596 92.0774 41.5919 93.0217 41.422C93.9661 41.2522 94.5147 41.5923 94.6675 42.4422C94.8373 43.3865 94.4244 45.0206 93.4287 47.3444C93.3682 47.5503 93.2842 47.7604 93.1765 47.9747C93.0603 48.1418 92.972 48.3283 92.9115 48.5342C93.2892 48.4662 93.7378 48.3856 94.2572 48.2922C94.7766 48.1988 95.3626 48.069 96.0151 47.9029C97.1313 47.6047 98.0993 47.4306 98.919 47.3807C99.0484 47.0162 99.1778 46.6517 99.3073 46.2873C99.4367 45.9228 99.5855 45.5304 99.7537 45.1102C100.129 44.2141 100.493 43.3931 100.846 42.6472C101.247 41.8927 101.66 41.2091 102.086 40.5963C102.34 40.1119 102.821 39.806 103.529 39.6787C103.924 39.7052 104.134 39.7892 104.16 39.9309C104.16 39.9309 103.58 41.4488 102.42 44.4846C101.259 47.5204 100.79 49.6521 101.011 50.8798C101.274 52.3435 102.043 52.9607 103.318 52.7315C104.923 52.4428 107.01 50.6296 109.578 47.2918C109.694 47.1247 109.823 47.0284 109.965 47.0029C110.106 46.9775 110.194 47.0592 110.228 47.248C110.279 47.5313 109.892 48.0884 109.066 48.9193C107.793 50.5131 106.606 51.7745 105.506 52.7035C104.397 53.5853 103.3 54.1239 102.214 54.3192C100.089 54.7013 98.8655 53.9952 98.5428 52.2009C98.3305 51.0205 98.3737 49.7698 98.6723 48.4487C98.0972 48.5034 97.4083 48.6029 96.6056 48.7472C95.8502 48.8831 95.0087 49.0832 94.0814 49.3474C93.4288 49.5135 93.0081 49.6135 92.8192 49.6475C92.6304 49.6815 92.4887 49.7069 92.3943 49.7239C91.9031 50.7871 91.4742 51.7904 91.1076 52.7337C90.7883 53.6685 90.6371 54.1832 90.6541 54.2776ZM133.571 42.5385C133.622 42.8218 133.336 43.2632 132.712 43.8628C127.609 48.8262 124.043 51.4905 122.012 51.8556C120.69 52.0934 119.893 51.4568 119.622 49.9458C119.469 49.0959 119.481 48.2163 119.659 47.3069C119.919 46.0416 120.044 45.3853 120.036 45.3381C120.002 45.1492 119.914 45.0675 119.772 45.093C119.725 45.1015 119.616 45.1699 119.444 45.2983C118.592 46.5239 117.306 48.0469 115.586 49.8672C113.376 52.2144 111.775 53.4772 110.783 53.6555C109.65 53.8593 108.982 53.3946 108.778 52.2614C108.659 51.6003 109.159 49.6339 110.276 46.362C111.385 43.0429 111.897 41.1472 111.813 40.6751C111.719 40.1557 111.248 39.9724 110.398 40.1252C110.209 40.1592 110.063 39.8929 109.961 39.3263C110.361 39.1082 110.797 38.9567 111.269 38.8718C112.922 38.5746 113.833 38.8982 114.003 39.8425C114.189 40.8813 113.772 42.76 112.75 45.4785C111.727 48.197 111.271 49.8632 111.382 50.477C111.45 50.8548 111.649 51.0139 111.979 50.9545C112.735 50.8186 114.351 49.2362 116.829 46.2073C119.354 43.1698 121.236 40.4915 122.476 38.1725C123.057 37.3369 123.513 36.8893 123.843 36.8299C124.457 36.7195 124.819 36.9712 124.93 37.5851C124.989 37.9156 124.9 38.3703 124.663 38.9491C122.594 43.7081 121.675 46.7251 121.904 47.9999C122.116 49.1804 122.765 49.6729 123.851 49.4776C125.504 49.1805 128.235 47.1539 132.044 43.3981C132.246 43.1667 132.538 42.8948 132.921 42.5823C133.037 42.4152 133.166 42.3189 133.307 42.2934C133.449 42.2679 133.537 42.3496 133.571 42.5385ZM152.215 39.1857C152.317 39.7523 151.049 41.1015 148.41 43.2334C145.646 45.4851 143.604 46.7298 142.282 46.9676C139.685 47.4346 138.107 46.524 137.55 44.2358C134.994 47.9126 132.831 51.2018 131.062 54.1034C130.421 55.1449 129.982 55.6868 129.746 55.7293C129.368 55.7972 129.149 55.6659 129.09 55.3354C129.039 55.0521 129.149 54.7155 129.42 54.3255C130.642 52.4484 133.255 48.5422 137.257 42.6068C137.294 41.1866 137.306 39.0883 137.295 36.312C137.244 36.0287 137.119 35.8804 136.922 35.8672C136.78 35.8927 136.628 35.9932 136.464 36.1688C134.985 37.7021 133.282 38.6665 131.355 39.0618C131.219 38.3064 131.379 37.839 131.834 37.6596C133.774 37.0669 135.635 35.7574 137.415 33.7312C138.047 33.1789 138.458 32.8857 138.646 32.8518C139.213 32.7499 139.564 33.0767 139.7 33.8322C139.661 33.8879 139.579 34.512 139.452 35.7047C139.204 37.3091 139.092 38.7184 139.116 39.9328C142.618 35.0135 145.205 31.6479 146.878 29.836C147.11 29.5018 147.368 29.3092 147.652 29.2582C148.218 29.1563 148.54 29.3179 148.616 29.7428C148.659 29.9789 148.497 30.3004 148.132 30.7074C145.074 34.0356 142.128 37.7095 139.292 41.729L139.369 42.1539C139.785 44.4676 140.843 45.4716 142.543 45.1659C144.951 44.7328 147.958 42.754 151.565 39.2295C151.681 39.0624 151.81 38.9661 151.952 38.9406C152.093 38.9151 152.181 38.9968 152.215 39.1857Z" fill="#989898"></path><path d="M110.891 91.8672C110.942 92.1505 110.656 92.5919 110.033 93.1915C104.93 98.1549 101.363 100.819 99.3329 101.184C98.0108 101.422 97.2139 100.785 96.9422 99.2745C96.7893 98.4246 96.8018 97.545 96.9794 96.6356C97.2393 95.3703 97.365 94.714 97.3566 94.6668C97.3226 94.4779 97.2348 94.3962 97.0931 94.4217C97.0459 94.4302 96.9364 94.4986 96.7645 94.627C95.9125 95.8526 94.6266 97.3756 92.9066 99.1959C90.6966 101.543 89.0957 102.806 88.1042 102.984C86.9709 103.188 86.3024 102.723 86.0987 101.59C85.9798 100.929 86.4792 98.9626 87.5968 95.6907C88.706 92.3716 89.2182 90.476 89.1332 90.0038C89.0398 89.4844 88.5682 89.3011 87.7183 89.454C87.5294 89.4879 87.384 89.2216 87.2821 88.655C87.6816 88.4369 88.1174 88.2854 88.5896 88.2005C90.2422 87.9033 91.1534 88.2269 91.3233 89.1713C91.5101 90.21 91.0924 92.0887 90.0702 94.8072C89.048 97.5258 88.5921 99.1919 88.7024 99.8058C88.7704 100.183 88.9696 100.343 89.3001 100.283C90.0556 100.147 91.6721 98.5649 94.1495 95.536C96.6742 92.4985 98.5566 89.8203 99.7969 87.5012C100.378 86.6656 100.834 86.2181 101.164 86.1586C101.778 86.0482 102.14 86.3 102.25 86.9138C102.31 87.2443 102.221 87.699 101.984 88.2778C99.915 93.0368 98.9952 96.0538 99.2245 97.3287C99.4367 98.5091 100.086 99.0017 101.172 98.8064C102.824 98.5092 105.555 96.4826 109.364 92.7268C109.566 92.4954 109.859 92.2235 110.241 91.911C110.357 91.7439 110.486 91.6476 110.628 91.6221C110.77 91.5966 110.858 91.6783 110.891 91.8672ZM130.293 92.3996C130.186 92.6139 130.044 92.9076 129.867 93.2806C129.682 93.6063 129.497 93.9321 129.311 94.2578C129.182 94.6223 129.04 94.916 128.885 95.1388C128.739 95.4089 128.618 95.5524 128.524 95.5694C127.91 95.6798 127.544 95.4044 127.425 94.7434C127.382 94.5073 127.463 94.0054 127.666 93.2377C128.088 92.3331 128.514 91.4521 128.945 90.5948C129.376 89.7374 129.779 88.8607 130.154 87.9646C131.382 85.3065 131.907 83.4817 131.729 82.4901C131.652 82.0652 131.472 81.8782 131.189 81.9291C131 81.9631 130.734 82.1085 130.39 82.3653C129.324 83.4832 128.055 84.8324 126.585 86.4129C125.161 87.985 123.465 89.8011 121.496 91.8613L121 91.9504C120.669 92.0099 120.496 91.9924 120.479 91.8979C120.462 91.8035 120.679 91.5207 121.13 91.0496C122.545 89.4303 124.027 87.7747 125.575 86.0827C127.161 84.335 128.834 82.5232 130.593 80.6471C131.027 80.0815 131.717 79.7138 132.661 79.544C133.605 79.3742 134.154 79.7142 134.307 80.5641C134.477 81.5085 134.064 83.1426 133.068 85.4664C133.008 85.6722 132.923 85.8823 132.816 86.0967C132.7 86.2638 132.611 86.4503 132.551 86.6561C132.929 86.5882 133.377 86.5075 133.896 86.4141C134.416 86.3207 135.002 86.191 135.654 86.0249C136.771 85.7267 137.739 85.5526 138.558 85.5027C138.688 85.1382 138.817 84.7737 138.947 84.4092C139.076 84.0447 139.225 83.6524 139.393 83.2322C139.768 82.3361 140.132 81.5151 140.485 80.7691C140.886 80.0147 141.299 79.3311 141.725 78.7183C141.979 78.2339 142.461 77.928 143.169 77.8006C143.563 77.8271 143.774 77.9112 143.799 78.0529C143.799 78.0529 143.219 79.5708 142.059 82.6066C140.899 85.6424 140.429 87.7741 140.65 89.0017C140.913 90.4655 141.682 91.0827 142.957 90.8535C144.562 90.5648 146.649 88.7515 149.217 85.4138C149.333 85.2467 149.462 85.1504 149.604 85.1249C149.746 85.0994 149.834 85.1811 149.867 85.37C149.918 85.6533 149.531 86.2104 148.706 87.0412C147.432 88.635 146.246 89.8965 145.145 90.8255C144.037 91.7073 142.939 92.2459 141.853 92.4411C139.729 92.8232 138.505 92.1172 138.182 90.3229C137.97 89.1425 138.013 87.8917 138.312 86.5707C137.737 86.6253 137.048 86.7249 136.245 86.8692C135.489 87.0051 134.648 87.2051 133.721 87.4694C133.068 87.6355 132.647 87.7355 132.459 87.7695C132.27 87.8034 132.128 87.8289 132.034 87.8459C131.542 88.9091 131.113 89.9124 130.747 90.8557C130.428 91.7905 130.276 92.3051 130.293 92.3996ZM166.907 81.794C166.966 82.1246 166.138 83.0777 164.423 84.6535C160.198 88.533 157.046 90.6596 154.968 91.0332C151.899 91.5851 150.042 90.0668 149.397 86.4783C148.921 83.8341 149.721 80.9607 151.795 77.858C153.908 74.6996 156.121 72.9123 158.435 72.4963C159.143 72.3689 159.557 72.6357 159.675 73.2968C159.964 74.9022 158.979 77.4191 156.719 80.8476C154.916 83.5603 153.383 85.469 152.119 86.5736C152.634 88.6257 153.813 89.4862 155.654 89.155C157.401 88.8409 160.117 87.134 163.8 84.0344C164.096 83.7861 164.915 83.0539 166.256 81.8378C166.373 81.6707 166.502 81.5744 166.643 81.5489C166.785 81.5235 166.873 81.6052 166.907 81.794ZM157.722 75.0373C157.62 74.4707 157.404 74.2171 157.073 74.2766C155.893 74.4888 154.665 75.9283 153.39 78.5948C152.114 81.2614 151.623 83.5432 151.915 85.4404C152.762 84.9958 153.957 83.5134 155.503 80.9933C157.203 78.2503 157.943 76.265 157.722 75.0373ZM189.208 32.4513C190.066 37.2202 188.837 43.5342 185.522 51.3932C182.966 57.5073 179.543 63.6798 175.253 69.9106C171.475 75.4645 169.066 78.3348 168.027 78.5216C168.967 82.9346 170.759 84.9033 173.403 84.4278C175.434 84.0627 177.472 82.7943 179.519 80.6227C178.894 79.8577 178.492 78.9794 178.314 77.9879C177.736 74.7771 178.486 72.9849 180.564 72.6113C181.414 72.4585 182.016 72.9595 182.37 74.1145C182.667 75.7671 182.256 77.5471 181.137 79.4544C182.177 80.6321 183.547 81.0682 185.247 80.7625C187.088 80.4313 188.747 79.3532 190.222 77.5281C190.338 77.3609 190.467 77.2646 190.609 77.2392C190.751 77.2137 190.838 77.2954 190.872 77.4843C190.906 77.6731 190.721 77.9989 190.317 78.4615C188.554 80.5822 186.609 81.8336 184.485 82.2157C182.738 82.5298 181.239 82.1901 179.988 81.1965C177.66 84.2472 175.175 86.0103 172.53 86.4858C170.972 86.766 169.559 86.3621 168.291 85.274C167.062 84.1302 166.281 82.6376 165.95 80.7961C165.008 75.555 165.707 68.8731 168.049 60.7505C170.178 53.3483 173.086 46.6106 176.77 40.5373C180.447 34.4168 183.701 31.1019 186.534 30.5924C188.045 30.3207 188.937 30.9403 189.208 32.4513ZM187.345 33.883C187.15 32.797 186.628 32.3304 185.778 32.4833C183.558 32.8824 180.851 36.1233 177.655 42.2061C174.636 47.9159 172.133 54.1909 170.146 61.0313C168.03 68.2361 167.273 73.5147 167.876 76.8671C167.91 77.056 167.974 77.142 168.069 77.125C168.966 76.9636 171.147 74.183 174.611 68.783C178.463 62.8259 181.575 56.9532 183.946 51.1649C186.959 43.7988 188.093 38.0382 187.345 33.883ZM181.738 74.6668C181.653 74.1946 181.445 73.9883 181.115 74.0477C180.123 74.226 179.802 75.2831 180.15 77.219C180.269 77.8801 180.469 78.4533 180.751 78.9387C181.655 77.4601 181.984 76.0361 181.738 74.6668ZM207.507 74.4929C207.567 74.8234 206.739 75.7765 205.024 77.3523C200.798 81.2318 197.646 83.3584 195.569 83.732C192.5 84.2839 190.643 82.7656 189.997 79.1771C189.522 76.5329 190.321 73.6595 192.395 70.5568C194.508 67.3984 196.722 65.6112 199.035 65.1951C199.744 65.0677 200.157 65.3346 200.276 65.9956C200.565 67.601 199.579 70.1179 197.32 73.5464C195.517 76.2591 193.983 78.1678 192.72 79.2724C193.235 81.3245 194.413 82.185 196.255 81.8539C198.002 81.5397 200.717 79.8328 204.4 76.7332C204.697 76.4849 205.516 75.7527 206.857 74.5367C206.973 74.3695 207.102 74.2732 207.244 74.2478C207.385 74.2223 207.473 74.304 207.507 74.4929ZM198.322 67.7361C198.22 67.1695 198.004 66.916 197.674 66.9754C196.493 67.1877 195.265 68.6271 193.99 71.2936C192.715 73.9602 192.223 76.242 192.516 78.1392C193.362 77.6946 194.558 76.2122 196.103 73.6921C197.803 70.9491 198.543 68.9638 198.322 67.7361ZM222.761 71.7497C222.795 71.9386 222.509 72.38 221.903 73.074C220.235 74.6413 218.59 76.2043 216.97 77.7631C214.567 79.8525 212.516 81.05 210.816 81.3557C209.824 81.534 208.887 81.337 208.004 80.7646C207.121 80.1922 206.599 79.4574 206.438 78.5603C205.878 75.4439 206.875 72.3156 209.43 69.1752C211.705 66.3775 214 64.7707 216.313 64.3546C217.777 64.0914 218.615 64.55 218.827 65.7304C218.946 66.3915 218.212 67.864 216.624 70.1481C216.469 70.3709 216.274 70.5035 216.037 70.546C215.66 70.6139 215.433 70.4354 215.356 70.0105C215.322 69.8216 215.368 69.6672 215.492 69.5473C215.608 69.3802 215.798 68.8098 216.062 67.8363C216.317 66.8155 216.402 66.069 216.317 65.5969C216.292 65.4552 216.114 65.4141 215.783 65.4735C214.603 65.6858 213.054 66.9637 211.135 69.3072C208.813 72.1133 207.872 74.744 208.314 77.1993C208.636 78.9936 209.577 79.7506 211.135 79.4704C213.543 79.0374 216.909 76.7503 221.234 72.6093C221.436 72.3779 221.729 72.106 222.111 71.7935C222.227 71.6264 222.356 71.5301 222.498 71.5046C222.64 71.4791 222.727 71.5608 222.761 71.7497ZM265.458 64.0715C265.509 64.3548 265.223 64.7962 264.6 65.3958C261.655 68.2651 260.015 69.8517 259.68 70.1557C257.784 71.8127 256.128 72.7686 254.711 73.0233C253.909 73.1676 253.173 73.0075 252.505 72.5427C251.883 72.0695 251.501 71.4316 251.356 70.6289C250.932 68.268 251.835 64.6203 254.068 59.6856C254.244 59.3126 254.324 59.0789 254.307 58.9845C254.299 58.9373 254.271 58.9179 254.224 58.9264C254.035 58.9604 253.734 59.1851 253.321 59.6005C251.034 62.0591 248.501 64.7812 245.723 67.7667C244.566 69.1933 242.857 71.2068 240.595 73.8071C240.268 74.1583 239.795 74.5114 239.177 74.8664C238.846 74.9258 238.638 74.7195 238.553 74.2473C238.384 73.303 238.891 71.6519 240.076 69.2941C241.299 66.8806 241.834 65.2489 241.681 64.399C241.537 63.5963 241.087 63.2629 240.332 63.3988C239.198 63.6026 237.208 65.5447 234.36 69.2252C232.42 71.7188 230.751 74.0907 229.352 76.3408C228.818 77.1679 228.362 77.6154 227.985 77.6834C227.371 77.7937 227.004 77.5184 226.885 76.8574C226.852 76.6685 226.932 76.1666 227.127 75.3517C227.98 73.5897 228.809 71.832 229.615 70.0785C230.843 67.4205 231.368 65.5957 231.189 64.6041C231.113 64.1792 230.933 63.9921 230.65 64.0431C230.508 64.0686 230.242 64.2139 229.851 64.4792C227.765 66.7065 224.801 69.8719 220.957 73.9753L220.461 74.0644C220.13 74.1239 219.957 74.1064 219.94 74.0119C219.914 73.8703 220.131 73.5875 220.591 73.1636C223.429 69.9722 226.584 66.5047 230.054 62.7611C230.535 62.187 231.225 61.8193 232.122 61.658C233.066 61.4882 233.615 61.8282 233.768 62.6781C233.802 62.867 233.805 63.1588 233.779 63.5535C233.132 65.3759 232.306 67.6936 231.3 70.5066C231.171 70.8711 231.115 71.1005 231.132 71.195C231.14 71.2422 231.192 71.2573 231.286 71.2403L231.486 71.1313C232.961 69.3062 234.436 67.481 235.912 65.6559C238.196 62.9055 239.928 61.4241 241.108 61.2119C242.666 60.9317 243.535 61.2873 243.713 62.2789C243.866 63.1288 243.627 64.5122 242.997 66.4291C242.405 68.2902 242.122 69.2916 242.148 69.4333C242.173 69.5749 242.233 69.6373 242.328 69.6203C242.517 69.5863 242.817 69.3616 243.23 68.9462L255.962 55.1773C256.367 54.7146 256.828 54.4366 257.348 54.3432C257.678 54.2838 257.927 54.3121 258.094 54.4283C258.253 54.4973 258.358 54.6734 258.409 54.9567C258.468 55.2872 258.425 55.5875 258.278 55.8576C257.296 57.984 256.294 60.1383 255.273 62.3205C254.109 65.0645 253.688 67.3336 254.011 69.1279C254.215 70.2611 254.926 70.6937 256.145 70.4257C257.601 70.1153 259.147 69.2279 260.785 67.7635C262.126 66.5474 263.467 65.3314 264.808 64.1153C264.924 63.9482 265.053 63.8519 265.195 63.8264C265.337 63.8009 265.424 63.8826 265.458 64.0715ZM287.522 60.1038C287.624 60.6704 286.355 62.0197 283.716 64.1515C280.953 66.4033 278.91 67.648 277.588 67.8858C275.133 68.3273 273.672 67.2496 273.205 64.6526C273.077 63.9444 273.311 63.0737 273.905 62.0408C273.896 61.9935 273.868 61.9742 273.821 61.9827C273.868 61.9742 272.772 63.195 270.532 65.6451C268.283 68.0481 266.592 69.3514 265.459 69.5552C264.373 69.7505 263.749 69.3996 263.588 68.5024C263.197 66.3304 264.561 63.4774 267.678 59.9433C270.624 56.5377 273.065 54.6608 275.001 54.3126C275.293 54.3089 275.629 54.419 276.011 54.6428C276.431 54.811 276.654 54.9659 276.679 55.1075C276.688 55.1548 276.673 55.2062 276.634 55.2619C273.99 55.7374 270.983 58.3985 267.614 63.2451C266.53 64.805 266.068 66.0335 266.23 66.9306C266.289 67.2611 266.484 67.3967 266.814 67.3372C267.853 67.1504 269.62 65.5897 272.114 62.6552C274.119 60.2475 275.51 58.3643 276.29 57.0056C276.66 56.354 276.939 56.0113 277.128 55.9773C277.6 55.8924 277.896 56.1805 278.015 56.8415C278.057 57.0776 277.848 57.6758 277.387 58.6361C275.858 61.7871 275.161 63.7403 275.297 64.4957C275.535 65.8178 276.385 66.3473 277.849 66.084C280.257 65.651 283.265 63.6722 286.872 60.1476C286.988 59.9805 287.117 59.8842 287.258 59.8587C287.4 59.8333 287.488 59.915 287.522 60.1038ZM305.038 17.8366C305.081 18.0726 305.018 18.4008 304.85 18.821C303.163 23.2675 301.619 29.5895 300.217 37.7869C298.707 46.735 297.395 52.9909 296.281 56.5546C296.121 57.022 295.97 57.2684 295.829 57.2939C295.593 57.3364 295.407 56.9799 295.271 56.2244C295.473 51.6548 296.287 45.6104 297.713 38.091C299.962 26.4753 301.152 20.217 301.283 19.3162C301.237 18.7883 301.443 18.3124 301.903 17.8884C302.411 17.456 302.947 17.1889 303.514 17.087C304.411 16.9257 304.919 17.1755 305.038 17.8366ZM297.614 62.7491C297.707 63.2685 297.513 63.8152 297.032 64.3893C296.55 64.9633 296.097 65.2886 295.672 65.365C294.774 65.5263 294.194 65.1433 293.929 64.2159C293.811 63.5549 293.977 62.9888 294.428 62.5177C294.88 62.0465 295.342 61.7685 295.814 61.6836C296.853 61.4968 297.453 61.8519 297.614 62.7491Z" fill="#989898"></path></g><defs><clipPath id="clip0_1909_5"><rect width="344" height="114" fill="white"></rect></clipPath></defs></svg> 