<?xml version="1.0" encoding="UTF-8"?> <svg xmlns="http://www.w3.org/2000/svg" width="1080" height="1080" viewBox="0 0 1080 1080" fill="none"><rect width="1080" height="1080" fill="#8B2D2F"></rect><path d="M197.466 743V422.504H277.287V743H197.466ZM237.377 300.957C263.984 300.957 277.287 312.85 277.287 336.635C277.287 360.42 263.984 372.313 237.377 372.313C210.769 372.313 197.466 360.42 197.466 336.635C197.466 312.85 210.769 300.957 237.377 300.957ZM521.396 414.038C561.307 414.038 592.954 422.705 616.336 440.04C619.561 442.862 623.592 444.273 628.43 444.273C632.865 444.273 637.098 442.862 641.129 440.04C664.511 422.705 696.158 414.038 736.068 414.038C785.251 414.038 822.139 427.543 846.73 454.553C871.322 481.161 883.618 523.894 883.618 582.752V743H803.191V582.752C803.191 529.537 797.547 491.038 786.259 467.252C775.375 443.064 758.644 430.97 736.068 430.97C713.089 430.97 695.956 443.266 684.668 467.857C673.783 492.045 668.341 530.344 668.341 582.752V743H588.519V582.752C588.519 529.537 582.875 491.038 571.587 467.252C560.703 443.064 543.972 430.97 521.396 430.97C498.418 430.97 481.284 443.266 469.996 467.857C459.111 492.045 453.669 530.344 453.669 582.752V743H373.847V422.504H432.504C435.326 422.504 437.947 423.109 440.365 424.318C442.784 425.124 445.405 425.527 448.227 425.527C451.452 425.527 453.871 425.124 455.483 424.318C474.834 417.465 496.805 414.038 521.396 414.038Z" fill="white"></path></svg> 